<svg xmlns="http://www.w3.org/2000/svg" xmlns:xlink="http://www.w3.org/1999/xlink" width="512" zoomAndPan="magnify" viewBox="0 0 384 383.999986" height="512" preserveAspectRatio="xMidYMid meet" version="1.0"><path fill="#fbeeec" d="M 383.527344 270.789062 C 383.527344 276.375 378.996094 280.902344 373.40625 280.902344 C 372.128906 280.902344 370.914062 280.65625 369.789062 280.226562 C 369.65625 285.507812 365.480469 289.773438 360.234375 290.058594 L 359.929688 295.308594 L 360.089844 295.25 C 379.101562 325.605469 369.953125 401.921875 369.953125 401.921875 L 316.929688 401.921875 C 316.929688 401.921875 316.925781 401.851562 316.921875 401.742188 C 315.679688 401.605469 314.433594 401.367188 313.195312 400.988281 L 254.359375 377.929688 L 245 377.910156 C 239.167969 378.230469 233.511719 375.867188 229.640625 371.496094 L 226.769531 368.25 L 211.523438 374.058594 C 210.238281 374.546875 208.789062 373.992188 208.164062 372.769531 C 207.527344 371.527344 207.945312 370.007812 209.125 369.261719 L 228.8125 356.816406 C 230.832031 355.542969 233.296875 355.179688 235.597656 355.824219 L 257.933594 362.058594 L 257.945312 362.003906 L 315.414062 365.378906 L 315.917969 364.160156 C 315.890625 358.207031 315.960938 352.765625 316.21875 348.972656 C 318.242188 319.09375 333.847656 304.761719 333.847656 304.761719 L 334.035156 298.707031 C 334.113281 296.171875 332.429688 293.921875 329.976562 293.277344 L 323.8125 291.664062 C 321.421875 290.90625 319.953125 288.5 320.375 286.027344 L 321.703125 278.226562 C 321.957031 276.734375 321.578125 275.203125 320.652344 274 L 319.011719 271.867188 C 317.785156 270.386719 318.015625 267.9375 319.769531 267.144531 C 320.414062 266.851562 321.09375 266.511719 321.769531 266.144531 C 321.398438 265.09375 321.1875 263.96875 321.1875 262.792969 C 321.1875 260.0625 322.273438 257.589844 324.03125 255.773438 C 320.613281 254.148438 318.242188 250.675781 318.242188 246.640625 C 318.242188 241.054688 322.773438 236.523438 328.363281 236.523438 C 330.011719 236.523438 331.5625 236.925781 332.9375 237.625 C 332.9375 237.605469 332.933594 237.585938 332.933594 237.566406 C 332.933594 231.980469 337.464844 227.449219 343.054688 227.449219 C 347.742188 227.449219 351.671875 230.636719 352.824219 234.957031 C 354.480469 231.625 357.910156 229.328125 361.886719 229.328125 C 367.476562 229.328125 372.007812 233.859375 372.007812 239.445312 C 372.007812 240.652344 371.785156 241.804688 371.394531 242.878906 C 372.191406 242.679688 373.015625 242.558594 373.871094 242.558594 C 379.460938 242.558594 383.992188 247.089844 383.992188 252.675781 C 383.992188 256.742188 381.589844 260.238281 378.128906 261.84375 C 381.335938 263.539062 383.527344 266.90625 383.527344 270.789062 Z M 319.730469 255.441406 C 319.730469 255.445312 319.734375 255.449219 319.738281 255.453125 C 319.753906 255.382812 319.769531 255.308594 319.785156 255.234375 C 319.769531 255.304688 319.742188 255.371094 319.730469 255.441406 Z M 254.359375 380.644531 L 254.359375 380.371094 C 254.359375 379.039062 253.28125 377.960938 251.953125 377.960938 L 163.335938 377.960938 L 143.78125 292 C 143.484375 290.703125 142.195312 289.890625 140.898438 290.183594 C 139.601562 290.480469 138.789062 291.769531 139.082031 293.066406 L 159.554688 383.050781 L 159.621094 383.039062 L 159.621094 383.050781 L 115.457031 383.050781 C 118.867188 381.898438 121.335938 378.710938 121.335938 374.914062 L 121.335938 353.292969 C 121.335938 353.292969 130.445312 350.566406 133.890625 342.960938 C 133.890625 342.960938 127.894531 338.839844 119.023438 342.464844 C 119.023438 342.464844 123.953125 336.609375 122.371094 326.636719 C 122.371094 326.636719 114.136719 327.585938 109.542969 336.609375 C 109.542969 336.609375 110.492188 325.53125 102.773438 319.355469 C 95.054688 325.53125 96.007812 336.609375 96.007812 336.609375 C 91.414062 327.585938 83.179688 326.636719 83.179688 326.636719 C 81.59375 336.609375 86.523438 342.464844 86.523438 342.464844 C 77.65625 338.839844 71.660156 342.960938 71.660156 342.960938 C 75.101562 350.5625 84.214844 353.289062 84.214844 353.292969 L 84.214844 374.914062 C 84.214844 378.710938 86.683594 381.898438 90.089844 383.050781 L 71.667969 383.050781 L 71.667969 401.433594 L 267.210938 401.433594 L 267.210938 383.050781 L 251.949219 383.050781 C 253.28125 383.050781 254.359375 381.972656 254.359375 380.644531 Z M 54.40625 279.355469 C 24.359375 279.355469 0 255.011719 0 224.976562 C 0 194.945312 24.359375 170.597656 54.40625 170.597656 C 84.15625 170.597656 108.316406 194.46875 108.792969 224.089844 L 159.65625 224.089844 C 159.199219 198.675781 173.015625 176.226562 193.839844 164.535156 L 158.515625 93.921875 C 150.335938 100.898438 139.738281 105.117188 128.144531 105.117188 C 102.28125 105.117188 81.316406 84.164062 81.316406 58.316406 C 81.316406 32.46875 102.28125 11.511719 128.144531 11.511719 C 153.707031 11.511719 174.472656 31.992188 174.949219 57.425781 L 252.8125 57.425781 C 252.804688 56.980469 252.78125 56.535156 252.78125 56.085938 C 252.78125 25.164062 277.859375 0.0976562 308.796875 0.0976562 C 339.734375 0.0976562 364.8125 25.164062 364.8125 56.085938 C 364.8125 87.007812 339.734375 112.070312 308.796875 112.070312 C 301.308594 112.070312 294.171875 110.59375 287.644531 107.929688 L 259.332031 164.523438 C 279.03125 175.585938 292.652344 196.351562 293.496094 220.574219 C 294.785156 257.511719 265.867188 288.496094 228.910156 289.78125 C 192.167969 291.058594 161.324219 262.496094 159.707031 225.867188 L 108.792969 225.867188 C 108.316406 255.488281 84.160156 279.355469 54.40625 279.355469 Z M 195.394531 163.667969 C 204.042969 159.113281 213.828125 156.382812 224.253906 156.019531 C 236.339844 155.601562 247.777344 158.425781 257.757812 163.6875 L 286.003906 107.226562 C 267.328125 98.898438 254.050781 80.667969 252.871094 59.203125 L 174.949219 59.203125 C 174.699219 72.445312 168.957031 84.34375 159.894531 92.707031 Z M 195.394531 163.667969 " fill-opacity="1" fill-rule="nonzero"/><path fill="#f26b6d" d="M 369.953125 401.925781 L 316.929688 401.925781 C 316.929688 401.925781 316.925781 401.851562 316.921875 401.742188 C 315.679688 401.609375 314.433594 401.367188 313.195312 400.988281 L 254.359375 377.929688 L 257.933594 362.058594 L 257.945312 362.003906 L 315.414062 365.378906 L 315.921875 364.160156 C 315.890625 358.203125 315.960938 352.765625 316.21875 348.972656 C 318.242188 319.09375 333.847656 304.761719 333.847656 304.761719 L 359.929688 295.308594 L 360.089844 295.25 C 379.101562 325.605469 369.953125 401.925781 369.953125 401.925781 Z M 369.953125 401.925781 " fill-opacity="1" fill-rule="nonzero"/><path fill="#fec045" d="M 248.984375 228.511719 C 254.574219 222.839844 258.03125 215.058594 258.03125 206.464844 C 258.03125 189.101562 243.953125 175.027344 226.582031 175.027344 C 209.210938 175.027344 195.128906 189.101562 195.128906 206.464844 C 195.128906 215.058594 198.589844 222.839844 204.179688 228.511719 L 204.175781 228.515625 C 214.789062 239.789062 212.796875 245.757812 212.796875 245.757812 L 240.367188 245.757812 C 240.367188 245.757812 238.375 239.789062 248.988281 228.515625 Z M 226.582031 184.722656 C 214.382812 184.722656 204.460938 194.640625 204.460938 206.832031 C 204.460938 207.320312 204.0625 207.71875 203.570312 207.71875 C 203.078125 207.71875 202.679688 207.324219 202.679688 206.832031 C 202.679688 193.660156 213.402344 182.945312 226.582031 182.945312 C 227.074219 182.945312 227.46875 183.339844 227.46875 183.832031 C 227.472656 184.324219 227.074219 184.722656 226.582031 184.722656 Z M 128.144531 11.511719 C 102.28125 11.511719 81.316406 32.464844 81.316406 58.3125 C 81.316406 84.164062 102.28125 105.117188 128.144531 105.117188 C 139.734375 105.117188 150.335938 100.898438 158.515625 93.921875 C 158.980469 93.523438 159.445312 93.121094 159.894531 92.703125 C 168.957031 84.339844 174.699219 72.445312 174.949219 59.203125 C 174.953125 58.90625 174.96875 58.613281 174.96875 58.3125 C 174.96875 58.015625 174.953125 57.722656 174.949219 57.425781 C 174.472656 31.988281 153.707031 11.511719 128.144531 11.511719 Z M 128.144531 88.199219 C 111.65625 88.199219 98.242188 74.792969 98.242188 58.3125 C 98.242188 41.835938 111.65625 28.429688 128.144531 28.429688 C 144.632812 28.429688 158.046875 41.835938 158.046875 58.3125 C 158.046875 74.792969 144.632812 88.199219 128.144531 88.199219 Z M 41.578125 205.800781 L 67.234375 205.800781 L 67.234375 208.84375 L 74.582031 208.84375 C 75.074219 208.84375 75.472656 209.238281 75.472656 209.730469 C 75.472656 210.222656 75.074219 210.621094 74.582031 210.621094 L 67.234375 210.621094 L 67.234375 217.503906 L 74.582031 217.503906 C 75.074219 217.503906 75.472656 217.902344 75.472656 218.394531 C 75.472656 218.882812 75.074219 219.28125 74.582031 219.28125 L 67.234375 219.28125 L 67.234375 226.164062 L 74.582031 226.164062 C 75.074219 226.164062 75.472656 226.5625 75.472656 227.054688 C 75.472656 227.546875 75.074219 227.941406 74.582031 227.941406 L 67.234375 227.941406 L 67.234375 234.824219 L 74.582031 234.824219 C 75.074219 234.824219 75.472656 235.222656 75.472656 235.714844 C 75.472656 236.207031 75.074219 236.605469 74.582031 236.605469 L 67.234375 236.605469 L 67.234375 244.152344 L 80.410156 244.152344 L 80.410156 192.632812 L 41.578125 192.632812 Z M 47.410156 200.183594 L 74.582031 200.183594 C 75.074219 200.183594 75.472656 200.578125 75.472656 201.070312 C 75.472656 201.5625 75.074219 201.960938 74.582031 201.960938 L 47.410156 201.960938 C 46.917969 201.960938 46.519531 201.5625 46.519531 201.070312 C 46.519531 200.578125 46.917969 200.183594 47.410156 200.183594 Z M 47.410156 200.183594 " fill-opacity="1" fill-rule="nonzero"/><path fill="#4724e3" d="M 108.792969 225.867188 C 108.796875 225.570312 108.816406 225.273438 108.816406 224.976562 C 108.816406 224.679688 108.796875 224.386719 108.792969 224.089844 L 159.65625 224.089844 C 159.664062 224.46875 159.652344 224.847656 159.667969 225.226562 C 159.675781 225.441406 159.695312 225.652344 159.703125 225.867188 Z M 195.394531 163.667969 L 159.894531 92.707031 C 159.445312 93.121094 158.980469 93.523438 158.515625 93.921875 L 193.839844 164.535156 C 194.355469 164.242188 194.867188 163.945312 195.394531 163.667969 Z M 252.871094 59.203125 C 252.835938 58.613281 252.828125 58.019531 252.8125 57.425781 L 174.949219 57.425781 C 174.953125 57.722656 174.96875 58.015625 174.96875 58.3125 C 174.96875 58.613281 174.953125 58.90625 174.949219 59.203125 Z M 257.761719 163.6875 C 258.285156 163.964844 258.8125 164.230469 259.332031 164.523438 L 287.640625 107.929688 C 287.089844 107.703125 286.546875 107.46875 286.003906 107.226562 Z M 378.128906 261.84375 C 381.589844 260.238281 383.992188 256.742188 383.992188 252.675781 C 383.992188 247.089844 379.460938 242.558594 373.871094 242.558594 C 373.015625 242.558594 372.1875 242.675781 371.394531 242.878906 C 371.785156 241.804688 372.007812 240.652344 372.007812 239.445312 C 372.007812 233.859375 367.476562 229.328125 361.886719 229.328125 C 357.910156 229.328125 354.480469 231.625 352.824219 234.957031 C 351.671875 230.636719 347.742188 227.449219 343.054688 227.449219 C 337.464844 227.449219 332.933594 231.976562 332.933594 237.566406 C 332.933594 237.585938 332.9375 237.605469 332.9375 237.625 C 331.5625 236.925781 330.011719 236.523438 328.363281 236.523438 C 322.773438 236.523438 318.242188 241.054688 318.242188 246.640625 C 318.242188 250.675781 320.613281 254.148438 324.03125 255.769531 C 322.273438 257.589844 321.1875 260.0625 321.1875 262.792969 C 321.1875 263.96875 321.398438 265.09375 321.769531 266.144531 C 324.300781 264.765625 326.765625 262.914062 327.132812 260.984375 C 327.554688 258.753906 327.933594 255.414062 329.109375 251.710938 C 329.429688 250.703125 329.914062 249.6875 330.484375 248.710938 C 330.484375 248.703125 330.480469 248.699219 330.480469 248.691406 C 330.519531 248.625 330.566406 248.5625 330.605469 248.496094 C 330.566406 248.566406 330.523438 248.640625 330.484375 248.710938 C 330.484375 248.710938 340.207031 257.738281 346.601562 257.28125 L 348.507812 268.980469 C 350.324219 267.683594 353.300781 266.253906 357.109375 266.898438 C 363.601562 267.996094 363.949219 274.546875 361.167969 278.082031 C 359.765625 279.863281 358.171875 280.964844 356.597656 281.648438 L 360.234375 290.058594 C 365.476562 289.773438 369.652344 285.507812 369.785156 280.226562 C 370.910156 280.65625 372.128906 280.90625 373.40625 280.90625 C 378.996094 280.90625 383.527344 276.375 383.527344 270.789062 C 383.527344 266.90625 381.335938 263.539062 378.128906 261.84375 Z M 319.738281 255.453125 C 319.753906 255.382812 319.769531 255.308594 319.785156 255.238281 C 319.769531 255.304688 319.742188 255.371094 319.726562 255.441406 C 319.730469 255.445312 319.734375 255.449219 319.738281 255.453125 Z M 251.953125 377.960938 L 163.335938 377.960938 L 143.78125 292 C 143.484375 290.703125 142.195312 289.890625 140.898438 290.183594 C 139.601562 290.480469 138.789062 291.769531 139.082031 293.066406 L 159.554688 383.050781 L 159.621094 383.039062 L 159.621094 383.050781 L 251.953125 383.050781 C 253.28125 383.050781 254.359375 381.972656 254.359375 380.644531 L 254.359375 380.371094 C 254.359375 379.039062 253.28125 377.960938 251.953125 377.960938 Z M 244.082031 249.863281 C 244.082031 247.59375 242.242188 245.757812 239.976562 245.757812 L 213.1875 245.757812 C 210.921875 245.757812 209.082031 247.59375 209.082031 249.863281 C 209.082031 252.128906 210.921875 253.964844 213.1875 253.964844 C 210.921875 253.964844 209.082031 255.804688 209.082031 258.070312 C 209.082031 260.335938 210.921875 262.175781 213.1875 262.175781 C 210.921875 262.175781 209.082031 264.011719 209.082031 266.277344 C 209.082031 268.546875 210.921875 270.382812 213.1875 270.382812 L 239.976562 270.382812 C 242.242188 270.382812 244.082031 268.546875 244.082031 266.277344 C 244.082031 264.011719 242.242188 262.175781 239.976562 262.175781 C 242.242188 262.175781 244.082031 260.335938 244.082031 258.070312 C 244.082031 255.804688 242.242188 253.964844 239.976562 253.964844 C 242.242188 253.964844 244.082031 252.128906 244.082031 249.863281 Z M 84.214844 353.289062 L 84.214844 374.914062 C 84.214844 378.707031 86.683594 381.898438 90.089844 383.050781 C 90.960938 383.347656 91.878906 383.542969 92.851562 383.542969 L 112.699219 383.542969 C 113.671875 383.542969 114.585938 383.347656 115.457031 383.050781 C 118.867188 381.894531 121.335938 378.707031 121.335938 374.914062 L 121.335938 353.289062 Z M 117.683594 64.820312 C 117.820312 64.820312 117.960938 64.789062 118.09375 64.71875 L 126.914062 60.125 C 127.273438 60.367188 127.679688 60.542969 128.144531 60.542969 C 129.375 60.542969 130.375 59.546875 130.375 58.3125 C 130.375 57.398438 129.820312 56.617188 129.035156 56.273438 L 129.035156 39.773438 C 129.035156 39.28125 128.636719 38.882812 128.144531 38.882812 C 127.652344 38.882812 127.253906 39.28125 127.253906 39.773438 L 127.253906 56.273438 C 126.464844 56.617188 125.910156 57.398438 125.910156 58.3125 C 125.910156 58.421875 125.957031 58.511719 125.972656 58.613281 L 117.269531 63.144531 C 116.835938 63.371094 116.667969 63.90625 116.894531 64.339844 C 117.050781 64.644531 117.359375 64.820312 117.683594 64.820312 Z M 74.582031 200.183594 L 47.410156 200.183594 C 46.917969 200.183594 46.519531 200.578125 46.519531 201.070312 C 46.519531 201.5625 46.917969 201.960938 47.410156 201.960938 L 74.582031 201.960938 C 75.074219 201.960938 75.472656 201.5625 75.472656 201.070312 C 75.472656 200.578125 75.074219 200.183594 74.582031 200.183594 Z M 74.582031 208.84375 L 67.234375 208.84375 L 67.234375 210.621094 L 74.582031 210.621094 C 75.074219 210.621094 75.472656 210.222656 75.472656 209.730469 C 75.472656 209.238281 75.074219 208.84375 74.582031 208.84375 Z M 74.582031 217.503906 L 67.234375 217.503906 L 67.234375 219.28125 L 74.582031 219.28125 C 75.074219 219.28125 75.472656 218.882812 75.472656 218.390625 C 75.472656 217.902344 75.074219 217.503906 74.582031 217.503906 Z M 74.582031 226.164062 L 67.234375 226.164062 L 67.234375 227.941406 L 74.582031 227.941406 C 75.074219 227.941406 75.472656 227.542969 75.472656 227.050781 C 75.472656 226.5625 75.074219 226.164062 74.582031 226.164062 Z M 74.582031 234.824219 L 67.234375 234.824219 L 67.234375 236.601562 L 74.582031 236.601562 C 75.074219 236.601562 75.472656 236.207031 75.472656 235.714844 C 75.472656 235.222656 75.074219 234.824219 74.582031 234.824219 Z M 61.40625 213.351562 L 34.234375 213.351562 C 33.742188 213.351562 33.34375 213.75 33.34375 214.242188 C 33.34375 214.730469 33.742188 215.128906 34.234375 215.128906 L 61.40625 215.128906 C 61.898438 215.128906 62.296875 214.730469 62.296875 214.242188 C 62.296875 213.75 61.898438 213.351562 61.40625 213.351562 Z M 61.40625 222.011719 L 34.234375 222.011719 C 33.742188 222.011719 33.34375 222.410156 33.34375 222.902344 C 33.34375 223.390625 33.742188 223.789062 34.234375 223.789062 L 61.40625 223.789062 C 61.898438 223.789062 62.296875 223.390625 62.296875 222.902344 C 62.296875 222.410156 61.898438 222.011719 61.40625 222.011719 Z M 61.40625 230.671875 L 34.234375 230.671875 C 33.742188 230.671875 33.34375 231.070312 33.34375 231.5625 C 33.34375 232.054688 33.742188 232.449219 34.234375 232.449219 L 61.40625 232.449219 C 61.898438 232.449219 62.296875 232.054688 62.296875 231.5625 C 62.296875 231.070312 61.898438 230.671875 61.40625 230.671875 Z M 61.40625 239.332031 L 34.234375 239.332031 C 33.742188 239.332031 33.34375 239.730469 33.34375 240.222656 C 33.34375 240.714844 33.742188 241.113281 34.234375 241.113281 L 61.40625 241.113281 C 61.898438 241.113281 62.296875 240.714844 62.296875 240.222656 C 62.296875 239.730469 61.898438 239.332031 61.40625 239.332031 Z M 61.40625 247.996094 L 34.234375 247.996094 C 33.742188 247.996094 33.34375 248.394531 33.34375 248.886719 C 33.34375 249.375 33.742188 249.773438 34.234375 249.773438 L 61.40625 249.773438 C 61.898438 249.773438 62.296875 249.378906 62.296875 248.886719 C 62.296875 248.394531 61.898438 247.996094 61.40625 247.996094 Z M 61.40625 247.996094 " fill-opacity="1" fill-rule="nonzero"/><path fill="#7b95f9" d="M 251.953125 383.050781 L 267.214844 383.050781 L 267.214844 401.433594 L 71.667969 401.433594 L 71.667969 383.050781 L 90.089844 383.050781 C 90.960938 383.347656 91.878906 383.542969 92.851562 383.542969 L 112.699219 383.542969 C 113.671875 383.542969 114.585938 383.347656 115.457031 383.050781 Z M 84.214844 353.289062 L 121.335938 353.289062 C 121.335938 353.289062 130.449219 350.5625 133.890625 342.957031 C 133.890625 342.957031 127.894531 338.839844 119.027344 342.464844 C 119.027344 342.464844 123.953125 336.609375 122.371094 326.636719 C 122.371094 326.636719 114.136719 327.585938 109.542969 336.609375 C 109.542969 336.609375 110.492188 325.527344 102.773438 319.355469 C 95.054688 325.527344 96.007812 336.609375 96.007812 336.609375 C 91.414062 327.585938 83.179688 326.636719 83.179688 326.636719 C 81.597656 336.609375 86.523438 342.464844 86.523438 342.464844 C 77.65625 338.839844 71.660156 342.957031 71.660156 342.957031 C 75.101562 350.5625 84.214844 353.289062 84.214844 353.289062 Z M 98.242188 58.3125 C 98.242188 41.835938 111.65625 28.429688 128.144531 28.429688 C 144.632812 28.429688 158.046875 41.835938 158.046875 58.3125 C 158.046875 74.792969 144.632812 88.199219 128.144531 88.199219 C 111.65625 88.199219 98.242188 74.792969 98.242188 58.3125 Z M 107.007812 58.3125 C 107.007812 69.980469 116.472656 79.4375 128.140625 79.4375 C 139.8125 79.4375 149.277344 69.980469 149.277344 58.3125 C 149.277344 46.648438 139.8125 37.191406 128.140625 37.191406 C 116.472656 37.191406 107.007812 46.648438 107.007812 58.3125 Z M 54.40625 279.355469 C 24.359375 279.355469 0 255.011719 0 224.976562 C 0 194.945312 24.359375 170.597656 54.40625 170.597656 C 84.15625 170.597656 108.316406 194.46875 108.792969 224.089844 C 108.796875 224.386719 108.816406 224.679688 108.816406 224.976562 C 108.816406 225.273438 108.796875 225.570312 108.792969 225.867188 C 108.316406 255.488281 84.160156 279.355469 54.40625 279.355469 Z M 80.410156 192.632812 L 41.578125 192.632812 L 41.578125 205.800781 L 28.402344 205.800781 L 28.402344 257.320312 L 67.234375 257.320312 L 67.234375 244.152344 L 80.414062 244.152344 L 80.414062 192.632812 Z M 331.183594 67.007812 L 335.273438 73.269531 C 333.015625 76.058594 333.105469 75.949219 330.851562 78.734375 L 323.867188 76.042969 C 321.804688 77.285156 320.933594 77.804688 318.871094 79.046875 L 317.976562 86.472656 C 314.453125 87.15625 314.59375 87.132812 311.070312 87.816406 L 307.457031 81.269531 C 305.074219 80.894531 304.074219 80.734375 301.691406 80.359375 L 296.234375 85.472656 C 293.09375 83.734375 293.21875 83.804688 290.078125 82.066406 L 291.519531 74.726562 C 289.9375 72.910156 289.273438 72.144531 287.691406 70.328125 L 280.21875 70.738281 C 278.933594 67.390625 278.984375 67.523438 277.695312 64.175781 L 283.519531 59.480469 C 283.476562 57.070312 283.460938 56.058594 283.417969 53.648438 L 277.429688 49.164062 C 278.597656 45.773438 278.550781 45.90625 279.71875 42.515625 L 287.199219 42.660156 C 288.714844 40.785156 289.351562 40 290.867188 38.125 L 289.167969 30.84375 C 292.242188 28.996094 292.121094 29.066406 295.195312 27.21875 L 300.832031 32.136719 C 303.199219 31.675781 304.195312 31.484375 306.558594 31.023438 L 309.941406 24.351562 C 313.484375 24.910156 313.34375 24.886719 316.886719 25.449219 L 318.046875 32.835938 C 320.152344 34.003906 321.039062 34.496094 323.148438 35.660156 L 330.027344 32.722656 C 332.382812 35.429688 332.292969 35.320312 334.644531 38.027344 L 330.78125 44.429688 C 331.644531 46.679688 332.007812 47.625 332.871094 49.871094 L 340.035156 52.042969 C 340.097656 55.625 340.097656 55.484375 340.160156 59.070312 L 333.082031 61.492188 C 332.296875 63.773438 331.96875 64.730469 331.183594 67.007812 Z M 317.980469 56.085938 C 317.980469 51.015625 313.867188 46.902344 308.796875 46.902344 C 303.722656 46.902344 299.609375 51.015625 299.609375 56.085938 C 299.609375 61.15625 303.722656 65.265625 308.796875 65.265625 C 313.867188 65.265625 317.980469 61.15625 317.980469 56.085938 Z M 317.980469 56.085938 " fill-opacity="1" fill-rule="nonzero"/></svg>