<svg xmlns="http://www.w3.org/2000/svg" xmlns:xlink="http://www.w3.org/1999/xlink" width="512" zoomAndPan="magnify" viewBox="0 0 384 383.999986" height="512" preserveAspectRatio="xMidYMid meet" version="1.0"><defs><clipPath id="902d879705"><path d="M 34 0 L 352.015625 0 L 352.015625 384 L 34 384 Z M 34 0 " clip-rule="nonzero"/></clipPath></defs><g clip-path="url(#902d879705)"><path fill="#7b95f9" d="M 131.777344 352.820312 L 131.777344 202.597656 C 130.152344 202.023438 128.5625 201.117188 127.136719 199.835938 C 123.722656 196.769531 118.542969 190.972656 113.445312 184.984375 C 113.050781 187.738281 112.636719 190.492188 112.222656 193.121094 L 114.722656 197.726562 C 115.882812 199.859375 115.707031 202.46875 114.28125 204.425781 L 111.886719 207.707031 C 111.632812 208.058594 111.277344 208.296875 110.886719 208.4375 C 112.890625 215.816406 115.738281 229.625 116.332031 250.050781 C 117.171875 278.96875 111.667969 364.789062 111.667969 364.789062 L 115.46875 370.527344 C 116.929688 372.726562 119.03125 374.421875 121.492188 375.382812 L 131.5 379.28125 C 132.433594 379.644531 133.050781 380.546875 133.050781 381.550781 C 133.050781 382.894531 131.960938 383.984375 130.617188 383.984375 L 109.957031 383.984375 C 106.839844 383.984375 103.8125 382.921875 101.371094 380.984375 C 101.105469 380.777344 100.917969 380.628906 100.851562 380.585938 C 100.5 380.351562 92.773438 378.476562 92.773438 378.476562 C 92.773438 378.476562 91.527344 373.085938 92.792969 365.003906 L 84.574219 258.085938 L 76.355469 365.003906 C 77.625 373.085938 76.375 378.480469 76.375 378.480469 C 76.375 378.480469 68.648438 380.351562 68.296875 380.585938 C 68.230469 380.632812 68.042969 380.777344 67.78125 380.988281 C 65.339844 382.925781 62.308594 383.984375 59.191406 383.984375 L 38.535156 383.984375 C 37.1875 383.984375 36.101562 382.894531 36.101562 381.550781 C 36.101562 380.546875 36.714844 379.644531 37.652344 379.28125 L 47.660156 375.382812 C 50.117188 374.425781 52.21875 372.730469 53.679688 370.527344 L 57.480469 364.792969 C 57.480469 364.792969 51.980469 278.96875 52.816406 250.050781 C 53.300781 233.464844 55.269531 221.242188 57.0625 213.28125 C 51.628906 212.910156 46.503906 212.085938 42.453125 210.5625 C 40.832031 210.164062 39.304688 209.410156 38.03125 208.296875 C 38.03125 208.296875 38.03125 208.296875 38.027344 208.296875 C 37.839844 208.164062 37.675781 208.003906 37.523438 207.828125 C 36.097656 206.398438 35.058594 204.472656 34.683594 202.042969 C 31.800781 183.382812 42.789062 152.84375 50.589844 138.953125 C 54.023438 133.507812 59.230469 130.210938 63.957031 128.230469 C 63.902344 127.878906 63.863281 127.523438 63.863281 127.160156 C 63.863281 125.855469 64.25 124.640625 64.902344 123.621094 C 64.894531 123.609375 64.886719 123.605469 64.875 123.597656 C 63.695312 124.738281 62.089844 125.445312 60.316406 125.445312 C 56.6875 125.445312 53.746094 122.5 53.746094 118.871094 C 53.746094 115.675781 56.027344 113.015625 59.050781 112.421875 C 56.027344 111.832031 53.746094 109.171875 53.746094 105.976562 C 53.746094 102.34375 56.6875 99.402344 60.316406 99.402344 C 61.28125 99.402344 62.195312 99.617188 63.019531 99.988281 C 65.425781 93.347656 68.394531 86.574219 76.414062 84.0625 C 79.398438 83.128906 82.300781 83.066406 84.867188 83.558594 C 88.609375 84.273438 91.632812 86.171875 93.160156 88.265625 C 93.28125 88.445312 93.402344 88.625 93.511719 88.808594 C 93.570312 88.902344 93.636719 88.996094 93.6875 89.089844 C 94.039062 89.699219 94.339844 90.328125 94.539062 90.953125 C 95.269531 93.246094 95.5 95.320312 95.761719 96.703125 C 96.050781 98.21875 98.417969 99.660156 100.324219 100.523438 C 101.410156 101.015625 101.554688 102.535156 100.792969 103.453125 L 99.777344 104.777344 C 99.203125 105.519531 98.96875 106.472656 99.125 107.398438 L 99.949219 112.234375 C 100.210938 113.769531 99.300781 115.261719 97.820312 115.730469 L 94.003906 116.734375 C 92.484375 117.132812 91.441406 118.527344 91.488281 120.097656 L 91.652344 125.492188 C 94.734375 126 102.855469 127.851562 109.242188 133.886719 L 109.273438 133.808594 C 116.207031 140.558594 124.644531 153.15625 131.777344 165.890625 L 131.777344 92.214844 C 110.5625 87.882812 94.554688 69.070312 94.554688 46.582031 C 94.554688 20.902344 115.433594 0.0117188 141.097656 0.0117188 C 166.757812 0.0117188 187.636719 20.902344 187.636719 46.582031 C 187.636719 50.683594 187.101562 54.65625 186.101562 58.445312 L 197.75 58.445312 C 205.59375 56.195312 210.4375 50.945312 212.285156 42.695312 C 214.136719 50.945312 218.980469 56.195312 226.824219 58.445312 L 352.070312 58.445312 L 352.070312 352.820312 Z M 93.613281 88.957031 C 93.636719 89 93.664062 89.042969 93.6875 89.089844 C 93.6875 89.085938 93.691406 89.082031 93.691406 89.078125 C 93.667969 89.035156 93.636719 89 93.613281 88.957031 Z M 97.386719 93.019531 C 97.40625 93.0625 97.421875 93.109375 97.441406 93.15625 C 97.441406 93.152344 97.445312 93.148438 97.445312 93.144531 C 97.429688 93.101562 97.40625 93.0625 97.386719 93.019531 Z M 97.386719 93.019531 " fill-opacity="1" fill-rule="nonzero"/></g><path fill="#f26b6d" d="M 91.488281 120.097656 L 91.65625 125.492188 C 90.855469 125.359375 90.386719 125.316406 90.386719 125.316406 L 75.871094 125.316406 L 75.757812 123.316406 L 75.4375 117.820312 L 77.511719 109.515625 C 76.535156 109.09375 75.550781 108.410156 74.683594 107.304688 C 72.960938 105.113281 73.171875 101.050781 77.195312 100.367188 C 79.554688 99.96875 81.398438 100.855469 82.523438 101.660156 C 86.214844 100.046875 91.878906 96.441406 93.6875 89.089844 C 94.039062 89.695312 94.339844 90.324219 94.539062 90.949219 C 95.269531 93.246094 95.503906 95.320312 95.765625 96.699219 C 96.054688 98.214844 98.421875 99.660156 100.328125 100.523438 C 101.410156 101.015625 101.554688 102.535156 100.792969 103.453125 L 99.777344 104.773438 C 99.207031 105.519531 98.972656 106.46875 99.128906 107.394531 L 99.949219 112.230469 C 100.210938 113.765625 99.304688 115.257812 97.820312 115.730469 L 94.003906 116.730469 C 92.484375 117.128906 91.441406 118.527344 91.488281 120.097656 Z M 179.898438 129.03125 C 178.867188 127.984375 177.335938 127.605469 175.933594 128.050781 L 165.808594 131.253906 C 164.808594 129.949219 163.042969 129.496094 161.539062 130.164062 L 153.246094 133.828125 C 150.367188 135.101562 148.351562 137.78125 147.9375 140.902344 C 147.867188 141.429688 147.652344 142.878906 147.382812 144.644531 L 156.003906 147.285156 C 157.03125 147.597656 157.910156 148.167969 158.628906 148.878906 L 158.632812 148.851562 C 158.632812 148.851562 169.851562 137.691406 172.371094 135.65625 C 174.105469 134.253906 177.609375 132.214844 179.617188 131.089844 C 180.367188 130.664062 180.503906 129.644531 179.898438 129.03125 Z M 112.222656 193.121094 L 112.0625 192.824219 C 110.789062 190.480469 108.003906 189.40625 105.488281 190.296875 L 93.121094 194.664062 L 93.121094 207.640625 C 93.121094 208.289062 92.964844 208.902344 92.699219 209.457031 C 100.550781 212.375 107.753906 207.773438 107.753906 207.773438 L 109.4375 208.425781 C 109.917969 208.613281 110.425781 208.597656 110.886719 208.4375 C 111.277344 208.296875 111.632812 208.058594 111.886719 207.707031 L 114.28125 204.425781 C 115.707031 202.46875 115.882812 199.859375 114.722656 197.726562 Z M 112.222656 193.121094 " fill-opacity="1" fill-rule="nonzero"/><path fill="#fbeeec" d="M 269.035156 159.960938 C 269.035156 160.285156 268.773438 160.546875 268.449219 160.546875 L 178.117188 160.546875 C 177.792969 160.546875 177.53125 160.285156 177.53125 159.960938 C 177.53125 159.640625 177.792969 159.378906 178.117188 159.378906 L 268.449219 159.378906 C 268.773438 159.378906 269.035156 159.640625 269.035156 159.960938 Z M 306.9375 151.207031 L 313.082031 145.058594 C 313.3125 144.832031 313.679688 144.832031 313.90625 145.058594 C 314.136719 145.289062 314.136719 145.65625 313.90625 145.882812 L 306.9375 152.859375 L 306.9375 174.453125 C 306.9375 174.773438 306.675781 175.035156 306.355469 175.035156 L 277.394531 175.035156 C 277.074219 175.035156 276.8125 174.773438 276.8125 174.453125 L 276.8125 145.472656 C 276.8125 145.148438 277.074219 144.890625 277.394531 144.890625 L 306.355469 144.890625 C 306.675781 144.890625 306.9375 145.148438 306.9375 145.472656 Z M 281.933594 155.449219 C 282.160156 155.222656 282.527344 155.222656 282.757812 155.449219 L 292.730469 165.429688 L 305.773438 152.375 L 305.773438 146.054688 L 277.980469 146.054688 L 277.980469 173.867188 L 305.773438 173.867188 L 305.773438 154.023438 L 293.140625 166.664062 C 293.03125 166.773438 292.882812 166.835938 292.730469 166.835938 C 292.574219 166.835938 292.425781 166.773438 292.316406 166.664062 L 281.933594 156.273438 C 281.703125 156.046875 281.703125 155.679688 281.933594 155.449219 Z M 268.449219 208.765625 L 178.117188 208.765625 C 177.792969 208.765625 177.53125 209.027344 177.53125 209.347656 C 177.53125 209.671875 177.792969 209.933594 178.117188 209.933594 L 268.449219 209.933594 C 268.773438 209.933594 269.035156 209.671875 269.035156 209.347656 C 269.035156 209.027344 268.773438 208.765625 268.449219 208.765625 Z M 268.449219 258.15625 L 178.117188 258.15625 C 177.792969 258.15625 177.53125 258.414062 177.53125 258.738281 C 177.53125 259.058594 177.792969 259.320312 178.117188 259.320312 L 268.449219 259.320312 C 268.773438 259.320312 269.035156 259.058594 269.035156 258.738281 C 269.035156 258.414062 268.773438 258.15625 268.449219 258.15625 Z M 268.449219 307.542969 L 178.117188 307.542969 C 177.792969 307.542969 177.53125 307.804688 177.53125 308.125 C 177.53125 308.449219 177.792969 308.710938 178.117188 308.710938 L 268.449219 308.710938 C 268.773438 308.710938 269.035156 308.449219 269.035156 308.125 C 269.035156 307.804688 268.773438 307.542969 268.449219 307.542969 Z M 313.90625 194.449219 C 314.136719 194.675781 314.136719 195.046875 313.90625 195.273438 L 306.9375 202.246094 L 306.9375 223.839844 C 306.9375 224.160156 306.675781 224.421875 306.355469 224.421875 L 277.394531 224.421875 C 277.074219 224.421875 276.8125 224.160156 276.8125 223.839844 L 276.8125 194.859375 C 276.8125 194.539062 277.074219 194.277344 277.394531 194.277344 L 306.355469 194.277344 C 306.675781 194.277344 306.9375 194.539062 306.9375 194.859375 L 306.9375 200.597656 L 313.082031 194.449219 C 313.3125 194.21875 313.679688 194.21875 313.90625 194.449219 Z M 305.773438 203.414062 L 293.140625 216.054688 C 293.03125 216.164062 292.882812 216.222656 292.730469 216.222656 C 292.574219 216.222656 292.425781 216.164062 292.316406 216.054688 L 281.933594 205.664062 C 281.703125 205.433594 281.703125 205.066406 281.933594 204.839844 C 282.160156 204.609375 282.527344 204.609375 282.757812 204.839844 L 292.730469 214.816406 L 305.773438 201.761719 L 305.773438 195.445312 L 277.980469 195.445312 L 277.980469 223.253906 L 305.773438 223.253906 Z M 313.90625 243.835938 C 314.136719 244.0625 314.136719 244.433594 313.90625 244.660156 L 306.9375 251.632812 L 306.9375 273.226562 C 306.9375 273.550781 306.675781 273.808594 306.355469 273.808594 L 277.394531 273.808594 C 277.074219 273.808594 276.8125 273.550781 276.8125 273.226562 L 276.8125 244.25 C 276.8125 243.925781 277.074219 243.664062 277.394531 243.664062 L 306.355469 243.664062 C 306.675781 243.664062 306.9375 243.925781 306.9375 244.25 L 306.9375 249.984375 L 313.082031 243.835938 C 313.3125 243.609375 313.679688 243.609375 313.90625 243.835938 Z M 305.773438 252.800781 L 293.140625 265.441406 C 293.03125 265.550781 292.882812 265.613281 292.730469 265.613281 C 292.574219 265.613281 292.425781 265.550781 292.316406 265.441406 L 281.933594 255.050781 C 281.703125 254.824219 281.703125 254.453125 281.933594 254.226562 C 282.160156 253.996094 282.527344 253.996094 282.757812 254.226562 L 292.730469 264.203125 L 305.773438 251.152344 L 305.773438 244.832031 L 277.980469 244.832031 L 277.980469 272.644531 L 305.773438 272.644531 Z M 313.90625 293.222656 C 314.136719 293.453125 314.136719 293.820312 313.90625 294.046875 L 306.9375 301.023438 L 306.9375 322.617188 C 306.9375 322.9375 306.675781 323.199219 306.355469 323.199219 L 277.394531 323.199219 C 277.074219 323.199219 276.8125 322.9375 276.8125 322.617188 L 276.8125 293.636719 C 276.8125 293.3125 277.074219 293.054688 277.394531 293.054688 L 306.355469 293.054688 C 306.675781 293.054688 306.9375 293.3125 306.9375 293.636719 L 306.9375 299.375 L 313.082031 293.226562 C 313.3125 292.996094 313.679688 292.996094 313.90625 293.222656 Z M 305.773438 302.1875 L 293.140625 314.828125 C 293.027344 314.945312 292.878906 315 292.730469 315 C 292.578125 315 292.429688 314.945312 292.316406 314.828125 L 281.933594 304.441406 C 281.703125 304.210938 281.703125 303.84375 281.933594 303.613281 C 282.160156 303.386719 282.527344 303.386719 282.757812 303.613281 L 292.730469 313.59375 L 305.773438 300.539062 L 305.773438 294.21875 L 277.980469 294.21875 L 277.980469 322.03125 L 305.773438 322.03125 Z M 306.355469 104.324219 C 306.679688 104.324219 306.9375 104.0625 306.9375 103.742188 C 306.9375 103.417969 306.679688 103.15625 306.355469 103.15625 L 177.886719 103.15625 C 177.5625 103.15625 177.300781 103.417969 177.300781 103.742188 C 177.300781 104.0625 177.5625 104.324219 177.886719 104.324219 Z M 177.886719 46.582031 C 177.886719 66.914062 161.414062 83.394531 141.097656 83.394531 C 120.777344 83.394531 104.308594 66.914062 104.308594 46.582031 C 104.308594 26.25 120.777344 9.769531 141.097656 9.769531 C 161.414062 9.769531 177.886719 26.25 177.886719 46.582031 Z M 144.980469 46.582031 C 144.980469 44.636719 143.546875 43.039062 141.679688 42.753906 L 141.679688 14.261719 C 141.679688 13.941406 141.417969 13.679688 141.09375 13.679688 C 140.773438 13.679688 140.511719 13.941406 140.511719 14.261719 L 140.511719 42.753906 C 138.644531 43.039062 137.210938 44.636719 137.210938 46.582031 C 137.210938 47.117188 137.320312 47.625 137.515625 48.085938 L 122.613281 55.855469 C 122.328125 56.003906 122.21875 56.355469 122.367188 56.640625 C 122.472656 56.839844 122.675781 56.957031 122.886719 56.957031 C 122.976562 56.957031 123.066406 56.933594 123.152344 56.890625 L 138.140625 49.078125 C 138.851562 49.921875 139.90625 50.46875 141.097656 50.46875 C 143.242188 50.46875 144.980469 48.730469 144.980469 46.582031 Z M 144.980469 46.582031 " fill-opacity="1" fill-rule="nonzero"/><path fill="#4724e3" d="M 59.050781 112.421875 C 56.03125 111.832031 53.75 109.171875 53.75 105.972656 C 53.75 102.34375 56.691406 99.402344 60.316406 99.402344 C 61.28125 99.402344 62.195312 99.613281 63.019531 99.988281 C 65.429688 93.34375 68.394531 86.574219 76.414062 84.0625 C 79.398438 83.125 82.300781 83.066406 84.867188 83.558594 C 88.609375 84.273438 91.632812 86.167969 93.164062 88.265625 C 93.285156 88.441406 93.402344 88.621094 93.515625 88.804688 C 93.570312 88.902344 93.636719 88.992188 93.6875 89.089844 C 91.878906 96.441406 86.214844 100.046875 82.523438 101.660156 C 81.398438 100.855469 79.554688 99.96875 77.195312 100.367188 C 73.171875 101.050781 72.957031 105.113281 74.683594 107.304688 C 75.550781 108.410156 76.535156 109.09375 77.511719 109.515625 L 75.4375 117.820312 L 75.757812 123.316406 L 75.871094 125.316406 L 75.070312 125.316406 C 75.070312 125.316406 69.890625 125.742188 63.960938 128.226562 C 63.902344 127.878906 63.863281 127.523438 63.863281 127.15625 C 63.863281 125.851562 64.25 124.640625 64.902344 123.617188 C 64.894531 123.609375 64.886719 123.601562 64.878906 123.59375 C 63.695312 124.738281 62.089844 125.441406 60.316406 125.441406 C 56.6875 125.441406 53.746094 122.5 53.746094 118.871094 C 53.746094 115.675781 56.027344 113.011719 59.050781 112.421875 Z M 110.886719 208.4375 C 110.425781 208.597656 109.917969 208.613281 109.4375 208.425781 L 107.753906 207.773438 C 107.753906 207.773438 100.550781 212.375 92.699219 209.457031 C 92.097656 210.730469 90.894531 211.675781 89.414062 211.863281 C 87.3125 212.132812 84.433594 212.464844 81.089844 212.761719 C 74.183594 213.375 65.28125 213.839844 57.0625 213.28125 C 55.269531 221.242188 53.300781 233.460938 52.816406 250.050781 C 51.980469 278.96875 57.480469 364.789062 57.480469 364.789062 L 76.355469 365.003906 L 84.574219 258.085938 L 92.792969 365.003906 L 111.667969 364.789062 C 111.667969 364.789062 117.167969 278.96875 116.332031 250.050781 C 115.738281 229.625 112.890625 215.816406 110.886719 208.4375 Z M 141.679688 42.753906 L 141.679688 14.261719 C 141.679688 13.941406 141.417969 13.679688 141.09375 13.679688 C 140.773438 13.679688 140.511719 13.941406 140.511719 14.261719 L 140.511719 42.753906 C 138.644531 43.039062 137.210938 44.636719 137.210938 46.582031 C 137.210938 47.117188 137.320312 47.625 137.515625 48.085938 L 122.613281 55.855469 C 122.328125 56.003906 122.21875 56.355469 122.367188 56.640625 C 122.472656 56.839844 122.675781 56.957031 122.886719 56.957031 C 122.976562 56.957031 123.066406 56.933594 123.152344 56.890625 L 138.140625 49.078125 C 138.851562 49.921875 139.90625 50.46875 141.097656 50.46875 C 143.242188 50.46875 144.980469 48.730469 144.980469 46.582031 C 144.980469 44.636719 143.546875 43.035156 141.679688 42.753906 Z M 141.679688 42.753906 " fill-opacity="1" fill-rule="nonzero"/><path fill="#fec045" d="M 158.625 148.878906 C 160.140625 150.378906 160.886719 152.578125 160.402344 154.796875 C 157.78125 166.742188 153.492188 186.890625 144.449219 198.484375 C 142.726562 202.753906 137.066406 204.46875 131.777344 202.597656 C 130.152344 202.023438 128.5625 201.117188 127.136719 199.835938 C 123.722656 196.769531 118.542969 190.972656 113.445312 184.984375 C 113.050781 187.738281 112.636719 190.492188 112.222656 193.121094 L 112.0625 192.824219 C 110.789062 190.476562 108.003906 189.40625 105.488281 190.296875 L 93.121094 194.664062 L 93.121094 207.640625 C 93.121094 208.289062 92.964844 208.898438 92.699219 209.457031 C 92.097656 210.730469 90.894531 211.675781 89.414062 211.863281 C 87.316406 212.132812 84.433594 212.464844 81.089844 212.761719 C 74.183594 213.375 65.285156 213.839844 57.066406 213.277344 C 51.628906 212.90625 46.503906 212.085938 42.453125 210.558594 C 40.832031 210.164062 39.308594 209.40625 38.03125 208.296875 C 37.839844 208.160156 37.675781 208 37.523438 207.828125 C 36.097656 206.398438 35.058594 204.46875 34.683594 202.039062 C 31.800781 183.378906 42.789062 152.84375 50.589844 138.953125 C 54.027344 133.503906 59.230469 130.210938 63.960938 128.226562 C 69.890625 125.742188 75.070312 125.316406 75.070312 125.316406 L 90.386719 125.316406 C 90.386719 125.316406 90.855469 125.359375 91.65625 125.492188 C 94.734375 125.996094 102.855469 127.847656 109.242188 133.882812 L 109.273438 133.804688 C 116.207031 140.554688 124.644531 153.15625 131.777344 165.890625 C 132.371094 166.949219 132.957031 168.011719 133.53125 169.070312 L 147.246094 144.601562 L 147.382812 144.644531 L 156.003906 147.28125 C 157.03125 147.597656 157.90625 148.167969 158.625 148.878906 Z M 187.636719 46.582031 C 187.636719 50.683594 187.101562 54.65625 186.101562 58.445312 C 180.847656 78.398438 162.664062 93.15625 141.097656 93.15625 C 137.90625 93.15625 134.789062 92.832031 131.777344 92.214844 C 110.566406 87.882812 94.554688 69.070312 94.554688 46.582031 C 94.554688 20.902344 115.433594 0.0117188 141.097656 0.0117188 C 166.757812 0.0117188 187.636719 20.902344 187.636719 46.582031 Z M 177.886719 46.582031 C 177.886719 26.25 161.414062 9.769531 141.097656 9.769531 C 120.777344 9.769531 104.308594 26.25 104.308594 46.582031 C 104.308594 66.914062 120.777344 83.394531 141.097656 83.394531 C 161.414062 83.394531 177.886719 66.914062 177.886719 46.582031 Z M 226.820312 58.445312 C 218.980469 56.195312 214.132812 50.945312 212.285156 42.695312 C 210.4375 50.945312 205.589844 56.195312 197.75 58.445312 C 197.222656 58.597656 196.683594 58.734375 196.132812 58.859375 C 204.929688 60.832031 210.3125 66.21875 212.285156 75.019531 C 214.257812 66.21875 219.640625 60.832031 228.4375 58.859375 C 227.886719 58.734375 227.347656 58.597656 226.820312 58.445312 Z M 226.820312 58.445312 " fill-opacity="1" fill-rule="nonzero"/></svg>