<svg xmlns="http://www.w3.org/2000/svg" xmlns:xlink="http://www.w3.org/1999/xlink" width="512" zoomAndPan="magnify" viewBox="0 0 384 383.999986" height="512" preserveAspectRatio="xMidYMid meet" version="1.0"><defs><clipPath id="69ff5ec622"><path d="M 0 27.671875 L 380 27.671875 L 380 353 L 0 353 Z M 0 27.671875 " clip-rule="nonzero"/></clipPath><clipPath id="40e4983ff2"><path d="M 30 27.671875 L 316 27.671875 L 316 165 L 30 165 Z M 30 27.671875 " clip-rule="nonzero"/></clipPath></defs><g clip-path="url(#69ff5ec622)"><path fill="#f3bbc1" d="M 255.246094 116.71875 C 255.242188 116.714844 255.238281 116.707031 255.238281 116.703125 C 255.269531 116.617188 255.316406 116.539062 255.351562 116.453125 C 255.3125 116.542969 255.28125 116.632812 255.246094 116.71875 Z M 343.191406 197.160156 L 297.550781 178.816406 L 298.351562 164.992188 C 298.351562 164.992188 313.539062 146.175781 315.113281 131.957031 C 316.652344 118.058594 309.910156 105.644531 294.914062 102.433594 C 279.914062 99.21875 260.53125 99.40625 256.175781 110.386719 C 255.453125 112.207031 255.445312 113.875 255.832031 115.378906 C 256.363281 117.460938 257.671875 119.210938 259.074219 120.558594 C 258.875 121.707031 258.699219 122.777344 258.53125 123.660156 C 257.964844 126.628906 253.328125 129.453125 249.59375 131.140625 C 247.46875 132.101562 247.1875 135.074219 248.675781 136.871094 L 250.667969 139.460938 C 251.785156 140.917969 252.25 142.777344 251.941406 144.589844 L 250.328125 154.054688 C 249.816406 157.058594 251.597656 159.976562 254.503906 160.902344 L 261.980469 162.859375 C 264.957031 163.640625 267 166.371094 266.90625 169.449219 L 266.617188 178.816406 L 219.894531 199.117188 C 211.523438 202.9375 196.28125 232.722656 183.023438 262.585938 L 157.671875 217.402344 L 157.402344 217.484375 C 156.878906 214.023438 156.457031 211.1875 156.320312 210.15625 C 155.511719 204.050781 151.554688 198.808594 145.917969 196.316406 L 129.667969 189.140625 C 126.722656 187.84375 123.269531 188.722656 121.308594 191.277344 L 101.46875 185.007812 C 98.726562 184.140625 95.722656 184.882812 93.699219 186.925781 C 92.511719 188.128906 92.785156 190.125 94.257812 190.953125 C 98.183594 193.160156 105.050781 197.144531 108.453125 199.890625 C 113.386719 203.875 135.363281 225.710938 135.363281 225.710938 L 135.375 225.769531 C 132.40625 228.710938 130.945312 233.015625 131.898438 237.351562 C 137.03125 260.726562 145.4375 300.160156 163.148438 322.847656 C 167.566406 333.765625 185.167969 336.164062 197.070312 325.488281 C 203.757812 319.492188 213.90625 308.148438 223.894531 296.425781 C 224.773438 302.597656 225.714844 308.773438 226.636719 314.5625 C 225.296875 315.796875 224.253906 317.378906 223.683594 319.222656 L 220.449219 329.652344 C 219.039062 334.1875 220.371094 339.128906 223.867188 342.34375 L 229.71875 347.722656 C 231.085938 348.980469 233.132812 349.164062 234.699219 348.164062 L 237.683594 346.265625 C 237.683594 346.265625 251.582031 351.664062 264.886719 345.039062 C 266.160156 347.167969 268.355469 348.695312 270.972656 349.03125 C 289.199219 351.351562 337.230469 356.15625 362.972656 346.476562 C 366.148438 345.699219 369.140625 344.222656 371.636719 342.046875 C 371.640625 342.046875 371.640625 342.046875 371.640625 342.046875 C 372.011719 341.78125 372.335938 341.46875 372.632812 341.128906 C 375.421875 338.332031 377.457031 334.558594 378.191406 329.804688 C 383.84375 293.285156 359.839844 206.578125 343.191406 197.160156 Z M 118.34375 77.496094 C 121.929688 72.964844 121.542969 73.453125 125.125 68.917969 L 136.980469 73.988281 C 140.429688 71.546875 141.410156 70.851562 144.859375 68.40625 L 144.003906 55.546875 C 149.472656 53.671875 148.882812 53.875 154.347656 51.996094 L 161.578125 62.667969 C 165.804688 62.476562 167.003906 62.421875 171.226562 62.230469 L 177.464844 50.949219 C 183.078125 52.324219 182.472656 52.175781 188.085938 53.550781 L 188.394531 66.433594 C 192.054688 68.558594 193.09375 69.160156 196.75 71.28125 L 208.097656 65.164062 C 212.074219 69.355469 211.644531 68.902344 215.625 73.09375 L 208.917969 84.097656 C 210.847656 87.859375 211.394531 88.929688 213.324219 92.691406 L 226.179688 93.675781 C 227.261719 99.351562 227.144531 98.738281 228.222656 104.414062 L 216.628906 110.046875 C 216.214844 114.253906 216.101562 115.449219 215.6875 119.65625 L 225.96875 127.429688 C 223.808594 132.789062 224.042969 132.210938 221.882812 137.570312 L 209.078125 136.042969 C 206.457031 139.359375 205.710938 140.300781 203.089844 143.621094 L 207.535156 155.714844 C 202.820312 159.054688 203.328125 158.695312 198.613281 162.035156 L 188.667969 153.835938 C 184.667969 155.207031 183.53125 155.597656 179.53125 156.972656 L 176.726562 169.550781 C 170.953125 169.8125 171.578125 169.78125 165.800781 170.042969 L 161.875 157.769531 C 157.765625 156.765625 156.597656 156.476562 152.492188 155.472656 L 143.328125 164.539062 C 138.332031 161.636719 138.871094 161.949219 133.871094 159.050781 L 137.203125 146.601562 C 134.292969 143.535156 133.464844 142.664062 130.554688 139.597656 L 117.941406 142.273438 C 115.304688 137.132812 115.589844 137.6875 112.953125 132.546875 L 122.492188 123.875 C 121.699219 119.722656 121.476562 118.542969 120.6875 114.390625 L 108.628906 109.828125 C 109.191406 104.078125 109.132812 104.699219 109.691406 98.945312 L 122.40625 96.804688 C 123.988281 92.886719 124.4375 91.769531 126.019531 87.851562 Z M 155.03125 110.496094 C 155.03125 117.894531 161.027344 123.890625 168.425781 123.890625 C 175.828125 123.890625 181.824219 117.894531 181.824219 110.496094 C 181.824219 103.101562 175.828125 97.105469 168.425781 97.105469 C 161.027344 97.105469 155.03125 103.101562 155.03125 110.496094 Z M 66.921875 137.132812 C 66.90625 139.96875 66.898438 141.164062 66.878906 144.003906 L 73.808594 149.457031 C 72.335938 153.421875 72.394531 153.261719 70.925781 157.226562 L 62.113281 156.847656 C 60.277344 159.007812 59.503906 159.917969 57.664062 162.082031 L 59.460938 170.710938 C 55.789062 172.800781 55.933594 172.71875 52.257812 174.808594 L 45.753906 168.859375 C 42.957031 169.332031 41.777344 169.535156 38.976562 170.007812 L 34.804688 177.777344 C 30.648438 177.015625 30.8125 177.046875 26.652344 176.289062 L 25.496094 167.550781 C 23.046875 166.113281 22.015625 165.511719 19.566406 164.078125 L 11.375 167.347656 C 8.675781 164.09375 8.785156 164.222656 6.085938 160.96875 L 10.820312 153.53125 C 9.867188 150.859375 9.464844 149.730469 8.507812 147.058594 L 0.132812 144.300781 C 0.160156 140.074219 0.15625 140.242188 0.183594 136.015625 L 8.589844 133.363281 C 9.578125 130.699219 9.996094 129.582031 10.980469 126.917969 L 6.339844 119.425781 C 9.078125 116.203125 8.96875 116.332031 11.707031 113.109375 L 19.855469 116.480469 C 22.320312 115.074219 23.359375 114.484375 25.828125 113.082031 L 27.089844 104.359375 C 31.257812 103.648438 31.09375 103.679688 35.261719 102.96875 L 39.339844 110.785156 C 42.132812 111.296875 43.308594 111.511719 46.101562 112.019531 L 52.679688 106.148438 C 56.328125 108.285156 56.183594 108.199219 59.832031 110.335938 L 57.925781 118.941406 C 59.738281 121.128906 60.5 122.046875 62.3125 124.234375 L 71.128906 123.960938 C 72.546875 127.941406 72.492188 127.78125 73.914062 131.761719 Z M 50.421875 140.371094 C 50.421875 132.976562 44.421875 126.980469 37.023438 126.980469 C 29.625 126.980469 23.625 132.976562 23.625 140.371094 C 23.625 147.769531 29.625 153.765625 37.023438 153.765625 C 44.421875 153.765625 50.421875 147.769531 50.421875 140.371094 Z M 94.445312 116.832031 L 86.480469 109.375 C 83.007812 109.921875 81.546875 110.152344 78.074219 110.699219 L 72.800781 120.25 C 67.664062 119.25 67.867188 119.292969 62.730469 118.292969 L 61.425781 107.460938 C 58.414062 105.648438 57.144531 104.886719 54.132812 103.074219 L 43.949219 107.003906 C 40.660156 102.9375 40.789062 103.097656 37.496094 99.03125 L 43.464844 89.894531 C 42.320312 86.574219 41.839844 85.175781 40.695312 81.851562 L 30.371094 78.320312 C 30.460938 73.089844 30.460938 73.296875 30.550781 68.066406 L 41 64.902344 C 42.257812 61.621094 42.789062 60.242188 44.050781 56.960938 L 38.414062 47.621094 C 41.847656 43.671875 41.710938 43.828125 45.148438 39.882812 L 55.183594 44.171875 C 58.257812 42.46875 59.550781 41.75 62.625 40.050781 L 64.316406 29.269531 C 69.484375 28.453125 69.28125 28.488281 74.449219 27.671875 L 79.378906 37.402344 C 82.832031 38.074219 84.285156 38.359375 87.734375 39.027344 L 95.957031 31.855469 C 100.445312 34.550781 100.265625 34.445312 104.75 37.140625 L 102.269531 47.765625 C 104.480469 50.496094 105.410156 51.648438 107.621094 54.378906 L 118.535156 54.167969 C 120.238281 59.113281 120.167969 58.917969 121.871094 63.867188 L 113.136719 70.410156 C 113.074219 73.921875 113.050781 75.402344 112.988281 78.914062 L 121.480469 85.765625 C 119.605469 90.648438 119.679688 90.457031 117.800781 95.335938 L 106.902344 94.738281 C 104.597656 97.390625 103.625 98.507812 101.316406 101.15625 L 103.417969 111.863281 C 98.839844 114.398438 99.023438 114.300781 94.445312 116.832031 Z M 89.519531 73.960938 C 89.519531 66.566406 83.519531 60.570312 76.121094 60.570312 C 68.722656 60.570312 62.722656 66.566406 62.722656 73.960938 C 62.722656 81.359375 68.722656 87.355469 76.121094 87.355469 C 83.519531 87.355469 89.519531 81.359375 89.519531 73.960938 Z M 89.519531 73.960938 " fill-opacity="1" fill-rule="nonzero"/></g><path fill="#fec045" d="M 378.195312 329.804688 C 377.457031 334.5625 375.421875 338.332031 372.632812 341.128906 C 372.335938 341.46875 372.015625 341.78125 371.640625 342.046875 C 369.140625 344.222656 366.148438 345.699219 362.972656 346.476562 C 337.234375 356.15625 289.203125 351.351562 270.972656 349.03125 C 268.355469 348.695312 266.160156 347.167969 264.886719 345.039062 C 264.136719 343.785156 263.707031 342.316406 263.707031 340.761719 L 260.777344 315.503906 L 235.347656 311.851562 C 232.085938 311.386719 228.921875 312.457031 226.636719 314.5625 C 225.714844 308.773438 224.773438 302.597656 223.894531 296.425781 C 213.90625 308.148438 203.757812 319.492188 197.070312 325.488281 C 185.167969 336.164062 167.566406 333.765625 163.148438 322.847656 C 145.4375 300.160156 137.03125 260.726562 131.898438 237.351562 C 130.945312 233.015625 132.40625 228.710938 135.375 225.769531 C 136.785156 224.378906 138.5 223.261719 140.515625 222.648438 L 157.402344 217.488281 L 157.671875 217.402344 L 183.023438 262.585938 C 196.28125 232.722656 211.523438 202.941406 219.894531 199.117188 L 266.617188 178.816406 L 297.550781 178.816406 L 343.191406 197.160156 C 359.839844 206.578125 383.84375 293.285156 378.195312 329.804688 Z M 378.195312 329.804688 " fill-opacity="1" fill-rule="nonzero"/><path fill="#7b95f9" d="M 216.628906 110.046875 L 228.226562 104.414062 C 227.144531 98.738281 227.261719 99.351562 226.179688 93.675781 L 213.324219 92.691406 C 211.398438 88.929688 210.847656 87.859375 208.917969 84.097656 L 215.625 73.09375 C 211.648438 68.902344 212.078125 69.355469 208.097656 65.164062 L 196.75 71.285156 C 193.09375 69.160156 192.054688 68.558594 188.398438 66.4375 L 188.085938 53.554688 C 182.472656 52.179688 183.078125 52.324219 177.464844 50.949219 L 171.230469 62.230469 C 167.003906 62.421875 165.804688 62.476562 161.578125 62.667969 L 154.351562 51.996094 C 148.882812 53.875 149.472656 53.671875 144.007812 55.550781 L 144.863281 68.40625 C 141.410156 70.851562 140.429688 71.546875 136.980469 73.988281 L 125.125 68.917969 C 121.542969 73.453125 121.929688 72.964844 118.347656 77.496094 L 126.019531 87.851562 C 124.441406 91.773438 123.992188 92.886719 122.410156 96.808594 L 109.695312 98.949219 C 109.132812 104.699219 109.195312 104.078125 108.632812 109.828125 L 120.6875 114.390625 C 121.480469 118.542969 121.703125 119.722656 122.496094 123.875 L 112.957031 132.546875 C 115.59375 137.691406 115.308594 137.136719 117.945312 142.277344 L 130.558594 139.601562 C 133.46875 142.667969 134.296875 143.535156 137.207031 146.601562 L 133.875 159.050781 C 138.871094 161.953125 138.332031 161.640625 143.332031 164.539062 L 152.492188 155.472656 C 156.601562 156.480469 157.769531 156.765625 161.875 157.773438 L 165.804688 170.046875 C 171.578125 169.785156 170.957031 169.8125 176.730469 169.550781 L 179.535156 156.972656 C 183.535156 155.601562 184.671875 155.210938 188.671875 153.835938 L 198.613281 162.039062 C 203.332031 158.699219 202.820312 159.058594 207.539062 155.71875 L 203.09375 143.621094 C 205.714844 140.304688 206.460938 139.363281 209.082031 136.046875 L 221.882812 137.570312 C 224.046875 132.210938 223.8125 132.792969 225.972656 127.433594 L 215.691406 119.65625 C 216.101562 115.449219 216.21875 114.253906 216.628906 110.046875 Z M 168.429688 123.890625 C 161.027344 123.890625 155.03125 117.894531 155.03125 110.496094 C 155.03125 103.101562 161.027344 97.105469 168.429688 97.105469 C 175.828125 97.105469 181.824219 103.101562 181.824219 110.496094 C 181.824219 117.894531 175.828125 123.890625 168.429688 123.890625 Z M 168.429688 123.890625 " fill-opacity="1" fill-rule="nonzero"/><g clip-path="url(#40e4983ff2)"><path fill="#4724e3" d="M 315.113281 131.957031 C 313.539062 146.175781 298.351562 164.992188 298.351562 164.992188 L 294.292969 148.738281 C 296.203125 147.914062 298.132812 146.574219 299.835938 144.410156 C 300.117188 144.054688 300.359375 143.667969 300.585938 143.265625 C 303.078125 138.839844 302.136719 132.0625 294.914062 130.839844 C 290.289062 130.058594 286.675781 131.792969 284.472656 133.363281 C 284.472656 133.363281 278.410156 128.332031 276.863281 116.585938 C 276.863281 116.585938 270.679688 116.75 265.042969 115.519531 C 263.417969 115.167969 261.839844 114.699219 260.46875 114.078125 C 259.816406 116.460938 259.40625 118.648438 259.074219 120.558594 C 257.675781 119.210938 256.363281 117.460938 255.832031 115.378906 C 255.445312 113.875 255.453125 112.207031 256.175781 110.386719 C 260.53125 99.40625 279.914062 99.21875 294.914062 102.429688 C 309.910156 105.644531 316.652344 118.058594 315.113281 131.957031 Z M 113.136719 70.414062 C 113.074219 73.925781 113.050781 75.402344 112.988281 78.917969 L 121.480469 85.765625 C 119.605469 90.648438 119.679688 90.457031 117.800781 95.339844 L 106.902344 94.742188 C 104.597656 97.390625 103.625 98.507812 101.316406 101.160156 L 103.417969 111.863281 C 98.839844 114.398438 99.023438 114.296875 94.445312 116.832031 L 86.480469 109.371094 C 83.007812 109.921875 81.546875 110.152344 78.074219 110.699219 L 72.800781 120.25 C 67.664062 119.25 67.867188 119.289062 62.730469 118.289062 L 61.425781 107.457031 C 58.414062 105.648438 57.148438 104.886719 54.132812 103.074219 L 43.953125 107.003906 C 40.660156 102.9375 40.789062 103.097656 37.496094 99.03125 L 43.464844 89.894531 C 42.320312 86.574219 41.839844 85.175781 40.695312 81.851562 L 30.371094 78.320312 C 30.464844 73.089844 30.460938 73.296875 30.554688 68.066406 L 41 64.902344 C 42.261719 61.621094 42.789062 60.242188 44.050781 56.960938 L 38.414062 47.621094 C 41.847656 43.671875 41.710938 43.828125 45.148438 39.882812 L 55.183594 44.171875 C 58.257812 42.46875 59.554688 41.75 62.628906 40.050781 L 64.316406 29.269531 C 69.484375 28.453125 69.28125 28.484375 74.449219 27.667969 L 79.382812 37.402344 C 82.832031 38.074219 84.285156 38.355469 87.734375 39.027344 L 95.957031 31.855469 C 100.445312 34.550781 100.265625 34.445312 104.75 37.140625 L 102.269531 47.765625 C 104.480469 50.496094 105.410156 51.644531 107.621094 54.378906 L 118.535156 54.167969 C 120.238281 59.113281 120.171875 58.917969 121.871094 63.867188 Z M 89.519531 73.960938 C 89.519531 66.566406 83.519531 60.570312 76.121094 60.570312 C 68.722656 60.570312 62.722656 66.566406 62.722656 73.960938 C 62.722656 81.359375 68.722656 87.355469 76.121094 87.355469 C 83.519531 87.355469 89.519531 81.359375 89.519531 73.960938 Z M 89.519531 73.960938 " fill-opacity="1" fill-rule="nonzero"/></g></svg>