<svg xmlns="http://www.w3.org/2000/svg" xmlns:xlink="http://www.w3.org/1999/xlink" width="512" zoomAndPan="magnify" viewBox="0 0 384 383.999986" height="512" preserveAspectRatio="xMidYMid meet" version="1.0"><defs><clipPath id="310c183e61"><path d="M 0 5 L 384 5 L 384 381.75 L 0 381.75 Z M 0 5 " clip-rule="nonzero"/></clipPath><clipPath id="b72c13edc0"><path d="M 98 7 L 378 7 L 378 381.75 L 98 381.75 Z M 98 7 " clip-rule="nonzero"/></clipPath></defs><g clip-path="url(#310c183e61)"><path fill="#7b95f9" d="M 381.878906 182.710938 C 379.757812 177.800781 364.644531 148.976562 358.289062 144.875 C 351.933594 140.769531 339.960938 139.558594 339.960938 139.558594 L 340.359375 132.726562 C 343.574219 132.554688 346.132812 129.9375 346.214844 126.699219 C 346.902344 126.964844 347.648438 127.113281 348.433594 127.113281 C 351.859375 127.113281 354.636719 124.339844 354.636719 120.914062 C 354.636719 118.53125 353.292969 116.46875 351.328125 115.429688 C 353.449219 114.441406 354.921875 112.300781 354.921875 109.808594 C 354.921875 106.382812 352.144531 103.605469 348.71875 103.605469 C 348.191406 103.605469 347.6875 103.679688 347.199219 103.800781 C 347.4375 103.144531 347.574219 102.4375 347.574219 101.695312 C 347.574219 98.269531 344.796875 95.492188 341.367188 95.492188 C 338.933594 95.492188 336.828125 96.902344 335.816406 98.945312 C 335.109375 96.292969 332.699219 94.339844 329.828125 94.339844 C 326.398438 94.339844 323.621094 97.117188 323.621094 100.542969 C 323.621094 100.554688 323.625 100.566406 323.625 100.578125 C 322.78125 100.152344 321.832031 99.90625 320.820312 99.90625 C 317.394531 99.90625 314.617188 102.679688 314.617188 106.105469 C 314.617188 108.582031 316.070312 110.707031 318.164062 111.703125 C 317.085938 112.820312 316.421875 114.335938 316.421875 116.007812 C 316.421875 116.730469 316.550781 117.421875 316.777344 118.0625 C 316.363281 118.289062 315.949219 118.5 315.550781 118.675781 C 314.476562 119.164062 314.335938 120.664062 315.089844 121.574219 L 316.09375 122.878906 C 316.660156 123.617188 316.894531 124.554688 316.738281 125.472656 L 315.921875 130.253906 C 315.664062 131.769531 316.5625 133.246094 318.03125 133.710938 L 321.808594 134.699219 C 323.3125 135.09375 324.34375 136.476562 324.296875 138.027344 L 324.25 139.558594 C 324.25 139.558594 307.460938 142.070312 300.300781 146.90625 C 295.421875 150.203125 283.632812 159.804688 276.625 165.585938 L 260.675781 150.28125 L 252.503906 112.097656 C 261.550781 85.3125 255.820312 54.6875 235.558594 32.929688 L 229.765625 5.859375 L 0.105469 5.859375 L 65.523438 311.484375 L 295.183594 311.484375 L 270.300781 195.234375 C 271.199219 194.953125 272.105469 194.636719 273.011719 194.28125 L 304.742188 224.726562 C 304.933594 225.140625 305.207031 225.527344 305.558594 225.789062 C 305.746094 225.933594 305.976562 226.050781 306.226562 226.152344 L 308.761719 228.585938 C 308.242188 237.464844 307.660156 249.359375 307.261719 263.097656 C 306.476562 290.117188 307.261719 363.765625 307.261719 363.765625 L 303.703125 369.125 C 302.339844 371.183594 300.375 372.765625 298.074219 373.660156 L 288.714844 377.304688 C 287.839844 377.644531 287.261719 378.488281 287.261719 379.425781 C 287.261719 380.679688 288.28125 381.699219 289.539062 381.699219 L 308.863281 381.699219 C 311.777344 381.699219 314.609375 380.707031 316.894531 378.898438 C 317.140625 378.703125 317.316406 378.566406 317.378906 378.523438 C 317.707031 378.304688 324.933594 376.554688 324.933594 376.554688 C 324.933594 376.554688 326.101562 371.515625 324.914062 363.964844 L 332.601562 264.066406 L 340.289062 363.964844 C 339.105469 371.515625 340.273438 376.554688 340.273438 376.554688 C 340.273438 376.554688 347.5 378.304688 347.828125 378.523438 C 347.890625 378.566406 348.066406 378.703125 348.3125 378.898438 C 350.59375 380.707031 353.429688 381.699219 356.34375 381.699219 L 375.667969 381.699219 C 376.925781 381.699219 377.941406 380.679688 377.941406 379.425781 C 377.941406 378.484375 377.367188 377.644531 376.492188 377.304688 L 367.132812 373.660156 C 364.832031 372.765625 362.867188 371.179688 361.5 369.125 L 357.945312 363.765625 C 357.945312 363.765625 358.730469 290.117188 357.945312 263.097656 C 357.183594 236.871094 355.75 217.34375 355.390625 212.75 C 363 209.183594 371.816406 204.789062 378.4375 200.710938 C 383.914062 197.339844 383.84375 187.261719 381.878906 182.710938 Z M 306.464844 176.222656 L 308.382812 196.066406 L 294.757812 182.988281 C 298.492188 180.863281 302.566406 178.503906 306.464844 176.222656 Z M 306.464844 176.222656 " fill-opacity="1" fill-rule="nonzero"/></g><path fill="#fbeeec" d="M 260.464844 195.597656 C 259.078125 194.992188 257.058594 193.8125 254.726562 192.257812 L 258.410156 209.460938 L 164.457031 209.460938 L 154.332031 162.15625 C 151.179688 161.1875 148.078125 160.019531 145.042969 158.648438 L 155.917969 209.460938 L 61.96875 209.460938 L 48.011719 144.25 L 123.554688 144.25 C 123.355469 144.0625 123.152344 143.890625 122.953125 143.703125 C 119.613281 140.496094 116.640625 137.054688 113.988281 133.445312 L 45.882812 133.445312 L 31.925781 68.234375 L 100.890625 68.234375 C 104.042969 55.035156 110.617188 42.480469 120.679688 32.007812 C 120.726562 31.957031 120.777344 31.910156 120.824219 31.863281 L 24.6875 31.863281 C 24.382812 31.863281 24.140625 31.617188 24.140625 31.316406 C 24.140625 31.015625 24.382812 30.773438 24.6875 30.773438 L 121.925781 30.773438 C 152.222656 0.585938 201.410156 -0.0273438 232.417969 29.730469 C 233.503906 30.773438 234.546875 31.84375 235.558594 32.933594 L 229.765625 5.859375 L 0.105469 5.859375 L 65.523438 311.484375 L 295.183594 311.484375 L 270.300781 195.234375 C 266.667969 196.371094 263.179688 196.789062 260.464844 195.597656 Z M 78.964844 286.027344 L 65.007812 220.816406 L 158.957031 220.816406 L 172.914062 286.027344 Z M 181.453125 286.027344 L 167.496094 220.816406 L 261.445312 220.816406 L 275.402344 286.027344 Z M 260.679688 150.285156 L 242.113281 132.464844 C 246.632812 126.113281 250.09375 119.242188 252.503906 112.097656 Z M 322.195312 107.246094 C 322.171875 107.289062 322.148438 107.332031 322.121094 107.375 C 322.121094 107.371094 322.121094 107.371094 322.121094 107.367188 C 322.144531 107.324219 322.171875 107.289062 322.195312 107.246094 Z M 136.859375 143.492188 C 136.5625 143.277344 136.269531 143.054688 135.976562 142.835938 L 200.785156 20.714844 C 201.128906 20.835938 201.476562 20.957031 201.820312 21.082031 Z M 179.917969 156.59375 L 236.824219 49.363281 C 237.050781 49.71875 237.273438 50.074219 237.492188 50.429688 L 181.183594 156.539062 C 180.761719 156.558594 180.339844 156.582031 179.917969 156.59375 Z M 186.234375 17.3125 C 186.617188 17.359375 187 17.425781 187.382812 17.476562 L 125.777344 133.5625 C 125.515625 133.273438 125.253906 132.988281 125 132.695312 Z M 186.234375 17.3125 " fill-opacity="1" fill-rule="nonzero"/><g clip-path="url(#b72c13edc0)"><path fill="#fec045" d="M 324.914062 363.964844 C 326.101562 371.515625 324.933594 376.554688 324.933594 376.554688 C 324.933594 376.554688 317.703125 378.304688 317.375 378.527344 C 317.316406 378.566406 317.136719 378.703125 316.894531 378.898438 C 314.609375 380.710938 311.777344 381.699219 308.859375 381.699219 L 289.539062 381.699219 C 288.28125 381.699219 287.261719 380.679688 287.261719 379.425781 C 287.261719 378.488281 287.835938 377.644531 288.710938 377.304688 L 298.070312 373.660156 C 300.371094 372.765625 302.339844 371.183594 303.703125 369.125 L 307.257812 363.765625 Z M 376.492188 377.304688 L 367.128906 373.660156 C 364.832031 372.765625 362.863281 371.183594 361.5 369.125 L 357.941406 363.765625 L 340.289062 363.964844 C 339.101562 371.515625 340.269531 376.554688 340.269531 376.554688 C 340.269531 376.554688 347.5 378.304688 347.828125 378.527344 C 347.886719 378.566406 348.0625 378.703125 348.308594 378.898438 C 350.59375 380.710938 353.425781 381.699219 356.34375 381.699219 L 375.664062 381.699219 C 376.921875 381.699219 377.941406 380.679688 377.941406 379.425781 C 377.941406 378.488281 377.363281 377.644531 376.492188 377.304688 Z M 304.742188 224.730469 L 273.011719 194.28125 L 243.355469 165.820312 L 244.878906 163.4375 C 246.214844 161.351562 246.023438 158.640625 244.414062 156.757812 L 239.703125 151.269531 C 238.410156 149.757812 236.097656 149.671875 234.691406 151.082031 L 231.417969 154.363281 L 226.039062 149.199219 C 205.375 165.199219 178.449219 169.574219 154.332031 162.15625 C 151.183594 161.1875 148.078125 160.019531 145.042969 158.648438 C 137.324219 155.15625 130.050781 150.359375 123.554688 144.25 C 123.355469 144.0625 123.152344 143.890625 122.957031 143.703125 C 119.613281 140.496094 116.640625 137.054688 113.988281 133.445312 C 100 114.410156 95.585938 90.417969 100.890625 68.234375 C 104.046875 55.035156 110.617188 42.480469 120.679688 32.007812 C 120.726562 31.957031 120.777344 31.910156 120.824219 31.863281 C 121.183594 31.488281 121.558594 31.136719 121.925781 30.773438 C 152.222656 0.585938 201.410156 -0.0273438 232.417969 29.730469 C 233.503906 30.773438 234.546875 31.84375 235.558594 32.933594 C 255.820312 54.691406 261.550781 85.316406 252.503906 112.097656 C 250.09375 119.242188 246.632812 126.113281 242.113281 132.464844 L 260.679688 150.285156 L 276.628906 165.589844 L 294.757812 182.988281 L 308.382812 196.066406 L 320.074219 207.285156 L 315.5625 208.121094 C 314.121094 208.386719 312.863281 209.25 312.09375 210.496094 L 304.609375 222.652344 C 304.320312 223.121094 304.390625 223.976562 304.742188 224.730469 Z M 237.492188 50.429688 C 237.273438 50.074219 237.050781 49.71875 236.824219 49.363281 C 233.863281 44.683594 230.308594 40.28125 226.136719 36.273438 C 218.933594 29.363281 210.632812 24.3125 201.824219 21.082031 C 201.476562 20.957031 201.132812 20.835938 200.785156 20.714844 C 196.410156 19.191406 191.921875 18.109375 187.382812 17.480469 C 187 17.425781 186.617188 17.359375 186.234375 17.3125 C 165.121094 14.730469 143.089844 21.769531 127.226562 38.289062 C 101.90625 64.652344 101.371094 105.699219 125 132.695312 C 125.257812 132.988281 125.515625 133.277344 125.777344 133.5625 C 126.886719 134.789062 128.027344 135.996094 129.238281 137.160156 C 131.390625 139.222656 133.644531 141.101562 135.976562 142.835938 C 136.269531 143.054688 136.5625 143.277344 136.859375 143.492188 C 149.675781 152.722656 164.863281 157.074219 179.917969 156.59375 C 180.339844 156.582031 180.761719 156.558594 181.179688 156.539062 C 198.375 155.679688 215.285156 148.539062 228.148438 135.144531 C 250.59375 111.777344 253.566406 76.863281 237.492188 50.429688 Z M 346.335938 255.761719 L 353.53125 248.273438 C 355.980469 245.71875 355.898438 241.664062 353.34375 239.214844 L 329.398438 216.234375 L 326.695312 217.75 C 323.570312 219.496094 320.363281 220.523438 317.6875 219.875 C 317.6875 219.875 313.488281 224.175781 311.234375 225.371094 C 308.921875 226.59375 307.289062 226.589844 306.226562 226.15625 L 308.761719 228.585938 L 331.554688 250.460938 L 337.273438 255.949219 C 339.824219 258.398438 343.882812 258.316406 346.335938 255.761719 Z M 346.335938 255.761719 " fill-opacity="1" fill-rule="nonzero"/></g><path fill="#4724e3" d="M 24.6875 30.773438 L 121.925781 30.773438 C 121.558594 31.136719 121.183594 31.488281 120.824219 31.863281 L 24.6875 31.863281 C 24.382812 31.863281 24.140625 31.621094 24.140625 31.316406 C 24.140625 31.015625 24.382812 30.773438 24.6875 30.773438 Z M 318.164062 111.707031 C 317.085938 112.820312 316.421875 114.335938 316.421875 116.011719 C 316.421875 116.730469 316.550781 117.421875 316.777344 118.066406 C 318.332031 117.21875 319.839844 116.085938 320.066406 114.902344 C 320.328125 113.535156 320.558594 111.488281 321.28125 109.21875 C 321.476562 108.597656 321.773438 107.976562 322.121094 107.375 C 322.121094 107.371094 322.121094 107.371094 322.121094 107.367188 C 322.144531 107.324219 322.171875 107.289062 322.199219 107.246094 C 322.171875 107.289062 322.148438 107.332031 322.125 107.375 C 322.125 107.375 328.082031 112.910156 332.003906 112.632812 L 333.171875 119.804688 C 334.285156 119.011719 336.109375 118.132812 338.445312 118.527344 C 342.425781 119.203125 342.636719 123.214844 340.933594 125.382812 C 340.074219 126.476562 339.097656 127.152344 338.132812 127.570312 L 340.359375 132.726562 C 343.574219 132.550781 346.136719 129.9375 346.214844 126.699219 C 346.90625 126.964844 347.652344 127.113281 348.433594 127.113281 C 351.863281 127.113281 354.640625 124.335938 354.640625 120.910156 C 354.640625 118.53125 353.296875 116.46875 351.328125 115.429688 C 353.449219 114.441406 354.925781 112.300781 354.925781 109.808594 C 354.925781 106.382812 352.148438 103.605469 348.71875 103.605469 C 348.195312 103.605469 347.6875 103.679688 347.203125 103.800781 C 347.441406 103.140625 347.578125 102.4375 347.578125 101.695312 C 347.578125 98.269531 344.796875 95.492188 341.371094 95.492188 C 338.933594 95.492188 336.832031 96.902344 335.816406 98.941406 C 335.113281 96.292969 332.703125 94.339844 329.828125 94.339844 C 326.402344 94.339844 323.625 97.117188 323.625 100.542969 C 323.625 100.554688 323.628906 100.566406 323.628906 100.578125 C 322.785156 100.152344 321.832031 99.902344 320.824219 99.902344 C 317.398438 99.902344 314.617188 102.679688 314.617188 106.105469 C 314.617188 108.582031 316.070312 110.710938 318.164062 111.707031 Z M 245.46875 167.847656 L 242.417969 168.039062 C 241.164062 168.117188 239.933594 167.648438 239.054688 166.75 L 232.257812 159.820312 C 231.539062 161.78125 231.082031 164.273438 231.382812 167.375 C 232.078125 174.597656 245.75 186.273438 254.726562 192.257812 C 257.058594 193.8125 259.078125 194.992188 260.464844 195.597656 C 263.179688 196.789062 266.667969 196.371094 270.300781 195.234375 C 271.199219 194.953125 272.105469 194.636719 273.011719 194.28125 L 243.355469 165.816406 Z M 381.878906 182.710938 C 379.757812 177.800781 364.644531 148.976562 358.289062 144.875 C 351.933594 140.769531 339.960938 139.558594 339.960938 139.558594 L 324.25 139.558594 C 324.25 139.558594 307.460938 142.070312 300.300781 146.90625 C 295.421875 150.203125 283.636719 159.808594 276.625 165.589844 L 294.757812 182.988281 C 298.492188 180.867188 302.566406 178.503906 306.464844 176.222656 L 308.382812 196.066406 L 320.074219 207.285156 L 329.558594 205.53125 L 334.675781 213.285156 L 335 213.773438 C 337.390625 217.398438 342.054688 218.773438 346.03125 217.011719 C 348.675781 215.839844 351.90625 214.382812 355.390625 212.75 C 362.996094 209.183594 371.8125 204.789062 378.433594 200.710938 C 383.914062 197.339844 383.84375 187.261719 381.878906 182.710938 Z M 381.878906 182.710938 " fill-opacity="1" fill-rule="nonzero"/><path fill="#f26b6d" d="M 338.132812 127.570312 L 340.359375 132.726562 L 339.964844 139.558594 L 324.25 139.558594 L 324.300781 138.03125 C 324.347656 136.476562 323.316406 135.097656 321.808594 134.703125 L 318.035156 133.714844 C 316.566406 133.246094 315.667969 131.773438 315.925781 130.253906 L 316.738281 125.472656 C 316.894531 124.558594 316.660156 123.621094 316.097656 122.882812 L 315.089844 121.574219 C 314.335938 120.667969 314.480469 119.164062 315.554688 118.679688 C 315.949219 118.5 316.367188 118.289062 316.777344 118.066406 C 318.332031 117.21875 319.84375 116.085938 320.066406 114.902344 C 320.328125 113.535156 320.558594 111.488281 321.28125 109.21875 C 321.476562 108.597656 321.773438 107.976562 322.125 107.375 C 322.125 107.375 328.082031 112.910156 332.003906 112.632812 L 333.171875 119.804688 C 334.285156 119.011719 336.109375 118.132812 338.445312 118.527344 C 342.425781 119.203125 342.636719 123.214844 340.933594 125.382812 C 340.070312 126.476562 339.097656 127.152344 338.132812 127.570312 Z M 320.074219 207.285156 L 315.5625 208.117188 C 314.121094 208.386719 312.863281 209.25 312.09375 210.492188 L 304.609375 222.652344 C 304.320312 223.121094 304.390625 223.976562 304.742188 224.730469 C 304.933594 225.144531 305.207031 225.527344 305.558594 225.792969 C 305.746094 225.933594 305.976562 226.050781 306.226562 226.15625 C 307.289062 226.589844 308.917969 226.589844 311.234375 225.371094 C 313.488281 224.175781 317.6875 219.875 317.6875 219.875 C 320.363281 220.523438 323.570312 219.496094 326.695312 217.75 L 329.398438 216.234375 L 334.675781 213.285156 L 329.558594 205.53125 Z M 244.414062 156.757812 L 239.703125 151.269531 C 238.410156 149.757812 236.097656 149.667969 234.691406 151.078125 L 231.417969 154.359375 L 231.058594 154.722656 C 229.996094 155.785156 229.988281 157.507812 231.042969 158.582031 L 232.257812 159.820312 L 239.054688 166.75 C 239.933594 167.648438 241.164062 168.117188 242.417969 168.039062 L 245.46875 167.847656 L 243.355469 165.816406 L 244.878906 163.4375 C 246.214844 161.351562 246.023438 158.636719 244.414062 156.757812 Z M 244.414062 156.757812 " fill-opacity="1" fill-rule="nonzero"/></svg>