<svg xmlns="http://www.w3.org/2000/svg" xmlns:xlink="http://www.w3.org/1999/xlink" width="512" zoomAndPan="magnify" viewBox="0 0 384 383.999986" height="512" preserveAspectRatio="xMidYMid meet" version="1.0"><defs><clipPath id="ffe710d324"><path d="M 29.410156 0 L 327.910156 0 L 327.910156 384 L 29.410156 384 Z M 29.410156 0 " clip-rule="nonzero"/></clipPath><clipPath id="d3b2667f2d"><path d="M 29.410156 0 L 327.910156 0 L 327.910156 384 L 29.410156 384 Z M 29.410156 0 " clip-rule="nonzero"/></clipPath></defs><g clip-path="url(#ffe710d324)"><path fill="#fdeceb" d="M 291.015625 271.996094 L 283.351562 270.300781 C 281.820312 269.964844 280.371094 269.320312 279.09375 268.40625 L 271.078125 262.679688 L 276.003906 262.800781 L 286.289062 211.929688 C 287.757812 204.667969 284.242188 197.308594 277.667969 193.890625 L 232.253906 170.28125 L 232.261719 124.554688 C 238.183594 120.238281 245.890625 114.464844 250.140625 110.671875 C 257.683594 103.941406 259.449219 100.308594 264.390625 92.035156 C 265.167969 90.734375 266.042969 89.140625 266.96875 87.371094 L 269.058594 86.070312 L 279.203125 101.859375 L 287.925781 85.246094 L 304.664062 93.730469 L 303.78125 74.984375 L 322.507812 73.824219 L 312.253906 58.105469 L 327.820312 47.621094 L 311.019531 39.261719 L 319.132812 22.339844 L 300.414062 23.632812 L 298.84375 4.933594 L 285.261719 14.226562 L 276.976562 0 L 267.535156 16.21875 L 251.183594 7.011719 L 251.25 25.78125 L 232.488281 26.121094 L 242.046875 42.273438 L 226.039062 52.066406 L 242.457031 61.15625 L 233.613281 77.707031 L 252.058594 77.238281 L 243.171875 89.601562 L 219.296875 105.117188 L 219.253906 103.738281 C 219.210938 102.335938 220.140625 101.085938 221.5 100.730469 L 224.910156 99.835938 C 226.234375 99.417969 227.042969 98.085938 226.8125 96.714844 L 226.078125 92.394531 C 225.9375 91.570312 226.148438 90.722656 226.65625 90.054688 L 227.566406 88.875 C 228.246094 88.054688 228.117188 86.699219 227.148438 86.261719 C 225.445312 85.492188 223.328125 84.203125 223.074219 82.847656 C 222.839844 81.613281 222.628906 79.765625 221.980469 77.714844 C 221.800781 77.15625 221.53125 76.59375 221.21875 76.050781 C 218.726562 71.3125 212.527344 70.535156 206.144531 72.140625 C 199.761719 73.746094 195.722656 79.839844 197.238281 86.171875 C 198.753906 92.503906 204.753906 98.949219 204.753906 98.949219 L 205.113281 105.117188 C 205.113281 105.117188 193.503906 107.523438 187.011719 111.554688 C 180.890625 115.359375 166.269531 148.34375 163.304688 154.777344 C 160.339844 161.210938 161.949219 168.558594 170.707031 171.539062 C 172.675781 172.207031 175.417969 172.929688 178.460938 173.636719 L 174.761719 179.578125 L 188.296875 188.007812 L 166.671875 317.394531 C 164.027344 322.699219 165.414062 328.546875 165.691406 329.582031 L 128.429688 329.582031 L 128.429688 339.761719 L 128.550781 339.761719 L 128.550781 384.335938 L 29.5 384.335938 L 29.5 394.515625 L 138.730469 394.515625 L 138.730469 339.761719 L 237.660156 339.761719 L 237.660156 329.582031 L 237.597656 329.582031 L 237.597656 284.214844 L 326.472656 284.214844 L 326.472656 274.035156 L 292.980469 274.035156 C 292.796875 273.039062 292.035156 272.222656 291.015625 271.996094 Z M 187.527344 159.078125 L 189.675781 155.628906 Z M 257.265625 262.339844 C 254.925781 267.132812 255.835938 272.347656 256.230469 274.035156 L 227.421875 274.035156 L 227.421875 329.582031 L 202.378906 329.582031 C 202.347656 328.410156 201.527344 327.402344 200.378906 327.148438 L 192.714844 325.457031 C 191.183594 325.117188 189.734375 324.472656 188.457031 323.5625 L 180.820312 318.105469 L 186.484375 318.390625 L 218.476562 193.097656 L 262.28125 216.164062 L 256.585938 262.320312 Z M 221.21875 76.042969 C 221.21875 76.046875 221.21875 76.046875 221.21875 76.050781 C 221.195312 76.011719 221.171875 75.972656 221.148438 75.933594 C 221.171875 75.972656 221.199219 76.003906 221.21875 76.042969 Z M 221.21875 76.042969 " fill-opacity="1" fill-rule="nonzero"/></g><path fill="#7b95f9" d="M 293.023438 274.492188 L 293.023438 275.570312 C 293.023438 276.230469 292.488281 276.761719 291.832031 276.761719 L 270.835938 276.761719 C 269.746094 276.761719 268.675781 276.492188 267.71875 275.980469 L 265.273438 274.667969 L 256.378906 274.605469 C 256.378906 274.605469 256.316406 274.394531 256.230469 274.035156 C 255.835938 272.347656 254.925781 267.132812 257.265625 262.339844 L 271.078125 262.679688 L 279.09375 268.410156 C 280.371094 269.320312 281.820312 269.964844 283.351562 270.304688 L 291.015625 271.996094 C 292.035156 272.222656 292.796875 273.039062 292.980469 274.039062 C 293.007812 274.1875 293.023438 274.339844 293.023438 274.492188 Z M 200.378906 327.148438 L 192.714844 325.457031 C 191.183594 325.117188 189.734375 324.472656 188.457031 323.5625 L 180.820312 318.105469 L 166.671875 317.394531 C 164.03125 322.699219 165.414062 328.546875 165.691406 329.582031 C 165.722656 329.6875 165.742188 329.757812 165.742188 329.757812 L 174.636719 329.824219 L 177.082031 331.132812 C 178.039062 331.644531 179.109375 331.914062 180.199219 331.914062 L 201.195312 331.914062 C 201.851562 331.914062 202.386719 331.382812 202.386719 330.726562 L 202.386719 329.648438 C 202.386719 329.625 202.378906 329.605469 202.378906 329.582031 C 202.347656 328.410156 201.527344 327.402344 200.378906 327.148438 Z M 200.378906 327.148438 " fill-opacity="1" fill-rule="nonzero"/><path fill="#4724e3" d="M 197.238281 86.171875 C 195.722656 79.839844 199.761719 73.746094 206.144531 72.140625 C 212.527344 70.535156 218.726562 71.3125 221.21875 76.050781 C 221.21875 76.050781 215.839844 81.050781 212.300781 80.796875 L 211.242188 87.273438 C 210.238281 86.558594 208.589844 85.765625 206.484375 86.121094 C 202.890625 86.730469 202.699219 90.355469 204.238281 92.316406 C 205.015625 93.300781 205.894531 93.910156 206.765625 94.289062 L 204.753906 98.945312 C 204.753906 98.945312 198.753906 92.503906 197.238281 86.171875 Z M 277.667969 193.890625 L 232.253906 170.28125 L 221.460938 170.28125 C 221.5 170.457031 221.550781 170.628906 221.570312 170.808594 L 222.125 175.484375 C 222.363281 177.519531 221.414062 179.507812 219.679688 180.597656 L 216.777344 182.417969 C 216.097656 182.847656 215.21875 182.761719 214.632812 182.214844 L 213.515625 181.175781 C 213.515625 181.175781 213.429688 181.191406 213.308594 181.210938 L 209.007812 188.117188 L 203.269531 197.332031 L 188.296875 188.007812 L 166.671875 317.394531 L 180.820312 318.105469 L 186.484375 318.390625 L 218.476562 193.097656 L 262.28125 216.164062 L 256.585938 262.320312 L 257.265625 262.335938 L 271.078125 262.679688 L 276.003906 262.800781 L 286.289062 211.929688 C 287.757812 204.667969 284.242188 197.308594 277.667969 193.890625 Z M 277.667969 193.890625 " fill-opacity="1" fill-rule="nonzero"/><g clip-path="url(#d3b2667f2d)"><path fill="#fec045" d="M 226.039062 52.066406 L 242.046875 42.273438 L 232.488281 26.121094 L 251.25 25.78125 L 251.183594 7.011719 L 267.535156 16.21875 L 276.976562 0 L 285.261719 14.226562 L 298.84375 4.933594 L 300.414062 23.632812 L 319.136719 22.339844 L 311.019531 39.261719 L 327.820312 47.621094 L 312.253906 58.105469 L 322.507812 73.824219 L 303.78125 74.984375 L 304.664062 93.730469 L 287.925781 85.246094 L 279.203125 101.859375 L 269.058594 86.070312 L 266.96875 87.371094 C 268.625 84.210938 270.453125 80.472656 272.226562 76.730469 C 272.3125 76.542969 272.402344 76.359375 272.488281 76.175781 C 275.890625 68.972656 279.03125 61.890625 280.273438 59.066406 C 280.636719 58.246094 280.84375 57.773438 280.84375 57.773438 L 281.121094 57.101562 C 281.140625 57.054688 281.164062 57.007812 281.179688 56.960938 L 283.042969 52.5 L 283.632812 51.078125 C 283.808594 50.746094 283.964844 50.40625 284.109375 50.0625 C 284.402344 49.339844 284.621094 48.589844 284.769531 47.820312 C 284.816406 47.5625 284.851562 47.296875 284.882812 47.03125 C 284.894531 46.945312 284.914062 46.859375 284.921875 46.769531 L 285.117188 44.785156 C 285.300781 42.917969 284.378906 41.113281 282.761719 40.167969 L 276.453125 36.488281 C 275.019531 35.652344 273.179688 36.222656 272.46875 37.71875 L 271.027344 40.746094 L 269.035156 41.9375 C 267.417969 42.90625 266.589844 44.792969 266.972656 46.640625 L 268.578125 54.378906 L 268.507812 54.359375 L 258.386719 68.4375 L 252.058594 77.238281 L 233.613281 77.707031 L 242.457031 61.152344 Z M 293.023438 274.492188 L 293.023438 275.570312 C 293.023438 276.230469 292.488281 276.761719 291.832031 276.761719 L 270.835938 276.761719 C 269.746094 276.761719 268.675781 276.492188 267.71875 275.980469 L 265.273438 274.667969 L 256.378906 274.605469 C 256.378906 274.605469 256.316406 274.394531 256.230469 274.035156 L 227.421875 274.035156 L 227.421875 329.582031 L 202.378906 329.582031 C 202.378906 329.605469 202.386719 329.625 202.386719 329.648438 L 202.386719 330.726562 C 202.386719 331.382812 201.851562 331.914062 201.195312 331.914062 L 180.199219 331.914062 C 179.109375 331.914062 178.039062 331.644531 177.082031 331.132812 L 174.636719 329.824219 L 165.742188 329.757812 C 165.742188 329.757812 165.722656 329.6875 165.691406 329.582031 L 128.429688 329.582031 L 128.429688 339.761719 L 128.550781 339.761719 L 128.550781 384.335938 L 29.5 384.335938 L 29.5 394.515625 L 138.730469 394.515625 L 138.730469 339.761719 L 237.660156 339.761719 L 237.660156 329.582031 L 237.597656 329.582031 L 237.597656 284.214844 L 326.472656 284.214844 L 326.472656 274.035156 L 292.980469 274.035156 C 293.007812 274.1875 293.023438 274.339844 293.023438 274.492188 Z M 203.269531 197.332031 L 209.007812 188.117188 L 213.308594 181.210938 C 212.191406 181.378906 206.3125 182.035156 201.636719 178.179688 L 201.632812 178.191406 C 201.632812 178.191406 188.425781 175.96875 178.460938 173.636719 L 174.761719 179.578125 L 188.296875 188.007812 Z M 217.207031 166.769531 C 218.78125 166.832031 220.148438 167.703125 220.925781 168.980469 L 228.886719 156.191406 L 221.339844 151.488281 L 207.929688 143.140625 L 200.382812 138.4375 L 189.675781 155.628906 L 187.527344 159.078125 L 205.804688 166.046875 Z M 217.207031 166.769531 " fill-opacity="1" fill-rule="nonzero"/></g><path fill="#f26b6d" d="M 280.839844 57.773438 C 280.839844 57.773438 280.636719 58.246094 280.273438 59.066406 C 279.03125 61.890625 275.890625 68.972656 272.488281 76.175781 C 272.398438 76.359375 272.3125 76.542969 272.226562 76.730469 C 270.453125 80.472656 268.625 84.210938 266.96875 87.371094 C 266.039062 89.140625 265.164062 90.734375 264.386719 92.035156 C 259.449219 100.308594 257.683594 103.941406 250.140625 110.671875 C 245.890625 114.464844 238.179688 120.238281 232.261719 124.554688 L 232.253906 170.28125 L 221.460938 170.28125 C 221.347656 169.8125 221.167969 169.378906 220.925781 168.980469 L 228.886719 156.191406 L 221.339844 151.488281 L 222.179688 150.132812 C 222.863281 149.039062 222.527344 147.601562 221.433594 146.917969 L 211.988281 141.039062 C 210.894531 140.355469 209.453125 140.691406 208.773438 141.785156 L 207.929688 143.136719 L 200.382812 138.433594 L 189.675781 155.628906 L 187.527344 159.078125 L 205.804688 166.046875 L 201.636719 178.179688 L 201.632812 178.1875 C 201.632812 178.1875 188.425781 175.964844 178.460938 173.636719 C 175.417969 172.925781 172.675781 172.207031 170.707031 171.535156 C 161.949219 168.558594 160.339844 161.207031 163.304688 154.773438 C 166.269531 148.34375 180.890625 115.355469 187.011719 111.554688 C 193.503906 107.523438 205.113281 105.117188 205.113281 105.117188 L 219.296875 105.117188 L 243.171875 89.597656 L 252.058594 77.234375 L 258.386719 68.4375 L 268.507812 54.359375 L 268.578125 54.378906 Z M 280.839844 57.773438 " fill-opacity="1" fill-rule="nonzero"/></svg>