<svg xmlns="http://www.w3.org/2000/svg" xmlns:xlink="http://www.w3.org/1999/xlink" width="512" zoomAndPan="magnify" viewBox="0 0 384 383.999986" height="512" preserveAspectRatio="xMidYMid meet" version="1.0"><defs><clipPath id="c402ef95b6"><path d="M 0 31.929688 L 384 31.929688 L 384 333.429688 L 0 333.429688 Z M 0 31.929688 " clip-rule="nonzero"/></clipPath><clipPath id="ad06306b1f"><path d="M 0 56 L 306 56 L 306 333.429688 L 0 333.429688 Z M 0 56 " clip-rule="nonzero"/></clipPath></defs><g clip-path="url(#c402ef95b6)"><path fill="#fbeeec" d="M 265.585938 314.949219 L 305.148438 314.949219 L 305.148438 333.433594 L 39.230469 333.433594 L 39.230469 314.949219 L 102.933594 314.949219 C 100.808594 314.949219 98.921875 313.597656 98.242188 311.585938 L 76.242188 246.632812 C 75.640625 244.863281 76.957031 243.03125 78.824219 243.03125 L 92.875 243.03125 C 86.378906 223.503906 82.683594 203.773438 82.683594 203.773438 C 76.566406 197.871094 77.117188 188.996094 77.117188 188.996094 L 76.589844 188.996094 C 74.554688 188.996094 72.78125 187.625 72.269531 185.65625 L 70.828125 180.105469 C 70.261719 177.921875 71.238281 175.632812 73.203125 174.523438 L 82.84375 169.097656 L 81.9375 160.753906 C 81.835938 159.835938 81.652344 158.925781 81.378906 158.042969 L 79.714844 152.582031 C 79.464844 151.769531 79.554688 150.875 80.027344 150.171875 C 80.175781 149.945312 80.363281 149.734375 80.597656 149.578125 C 80.667969 149.535156 80.738281 149.492188 80.804688 149.460938 C 81.542969 149.097656 82.4375 149.460938 82.769531 150.214844 L 85.050781 155.414062 C 85.757812 157.019531 86.300781 158.691406 86.671875 160.40625 C 86.671875 160.40625 90.90625 172.808594 92.664062 174.429688 C 94.421875 176.046875 96.210938 172.230469 96.363281 171.316406 L 97.878906 166.121094 C 98.019531 165.285156 98.496094 164.523438 99.234375 164.097656 C 99.472656 163.964844 99.734375 163.859375 100.007812 163.824219 C 100.089844 163.8125 100.171875 163.808594 100.25 163.808594 C 101.074219 163.8125 101.710938 164.535156 101.671875 165.355469 L 101.402344 171.027344 C 101.316406 172.78125 101.058594 174.519531 100.632812 176.222656 C 99.910156 181.078125 98.550781 195.152344 98.378906 196.960938 L 98.609375 196.863281 L 125.550781 243.03125 C 137.460938 230.675781 144.070312 222.457031 151.976562 215.8125 C 165.96875 204.0625 188.003906 204.0625 188.003906 204.0625 L 188.082031 201.554688 C 188.160156 199.007812 186.464844 196.742188 183.996094 196.09375 L 177.796875 194.472656 C 175.386719 193.707031 173.910156 191.289062 174.335938 188.800781 L 175.671875 180.957031 C 175.925781 179.453125 175.542969 177.914062 174.613281 176.707031 L 172.964844 174.5625 C 171.730469 173.074219 171.960938 170.609375 173.722656 169.8125 C 176.820312 168.414062 180.667969 166.074219 181.132812 163.613281 C 181.488281 161.753906 181.816406 159.117188 182.59375 156.144531 L 182.59375 156.140625 C 182.59375 156.140625 176.453125 151.121094 181.738281 143.730469 C 186.804688 136.644531 215.804688 143.242188 225.0625 151.058594 C 232.285156 157.15625 228.234375 177.121094 214.449219 192.855469 L 213.796875 204.0625 C 213.796875 204.0625 232.839844 202.652344 245.769531 218.902344 C 259.132812 235.699219 278.652344 282.742188 278.648438 296.203125 C 278.648438 304.785156 272.09375 309.488281 268.285156 309.554688 C 267.585938 309.566406 266.789062 309.582031 265.9375 309.589844 C 267.261719 309.765625 268.285156 310.882812 268.285156 312.253906 C 268.285156 313.738281 267.074219 314.949219 265.585938 314.949219 Z M 359.054688 31.929688 C 356.023438 45.421875 347.757812 53.679688 334.25 56.703125 C 334.25 56.703125 334.25 56.703125 334.253906 56.703125 L 289.972656 56.703125 L 289.972656 90.308594 L 262.441406 90.308594 L 262.441406 56.703125 L 193.359375 56.703125 L 193.359375 90.308594 L 165.828125 90.308594 L 165.828125 56.703125 L 96.746094 56.703125 L 96.746094 90.308594 L 69.214844 90.308594 L 69.214844 56.703125 L 0.132812 56.703125 L 0.132812 125.703125 L 69.214844 125.703125 L 69.214844 92.097656 L 96.746094 92.097656 L 96.746094 125.703125 L 165.828125 125.703125 L 165.828125 92.097656 L 193.359375 92.097656 L 193.359375 125.703125 L 262.441406 125.703125 L 262.441406 92.097656 L 289.972656 92.097656 L 289.972656 125.703125 L 359.050781 125.703125 L 359.050781 81.472656 C 362.078125 67.984375 370.347656 59.726562 383.851562 56.703125 C 370.347656 53.679688 362.082031 45.421875 359.054688 31.929688 Z M 359.054688 31.929688 " fill-opacity="1" fill-rule="nonzero"/></g><g clip-path="url(#ad06306b1f)"><path fill="#f3bbc1" d="M 305.148438 314.949219 L 305.148438 333.433594 L 39.230469 333.433594 L 39.230469 314.949219 Z M 69.214844 125.703125 L 0.132812 125.703125 L 0.132812 56.703125 L 69.214844 56.703125 Z M 37.027344 81.640625 L 34.511719 81.640625 L 28.644531 86.394531 L 30.308594 88.351562 L 34.222656 85.082031 L 34.222656 102.296875 L 37.027344 102.296875 Z M 165.828125 125.703125 L 96.746094 125.703125 L 96.746094 56.703125 L 165.828125 56.703125 Z M 137.84375 99.757812 L 127.710938 99.757812 L 134.425781 93.222656 C 134.875 92.773438 135.304688 92.324219 135.710938 91.867188 C 136.121094 91.410156 136.476562 90.929688 136.777344 90.421875 C 137.082031 89.914062 137.320312 89.382812 137.492188 88.816406 C 137.671875 88.253906 137.757812 87.640625 137.757812 86.980469 C 137.757812 86.027344 137.578125 85.179688 137.21875 84.441406 C 136.855469 83.703125 136.375 83.089844 135.773438 82.601562 C 135.167969 82.117188 134.472656 81.746094 133.683594 81.496094 C 132.894531 81.242188 132.070312 81.113281 131.214844 81.113281 C 130.339844 81.113281 129.515625 81.253906 128.746094 81.523438 C 127.976562 81.796875 127.300781 82.179688 126.714844 82.675781 C 126.132812 83.171875 125.648438 83.753906 125.269531 84.425781 C 124.890625 85.097656 124.640625 85.824219 124.527344 86.597656 L 127.300781 87.066406 C 127.476562 86.015625 127.90625 85.15625 128.585938 84.484375 C 129.269531 83.8125 130.132812 83.476562 131.1875 83.476562 C 131.691406 83.476562 132.167969 83.558594 132.617188 83.726562 C 133.0625 83.890625 133.453125 84.128906 133.785156 84.4375 C 134.117188 84.75 134.378906 85.125 134.574219 85.5625 C 134.769531 86 134.867188 86.492188 134.867188 87.039062 C 134.867188 87.910156 134.640625 88.699219 134.195312 89.398438 C 133.746094 90.101562 133.210938 90.773438 132.585938 91.414062 L 124.351562 99.582031 L 124.351562 102.296875 L 137.84375 102.296875 Z M 262.441406 125.703125 L 193.359375 125.703125 L 193.359375 56.703125 L 262.441406 56.703125 Z M 234.3125 96.527344 C 234.3125 95.867188 234.203125 95.257812 233.992188 94.691406 C 233.777344 94.128906 233.484375 93.628906 233.113281 93.191406 C 232.746094 92.753906 232.300781 92.390625 231.785156 92.101562 C 231.269531 91.808594 230.707031 91.605469 230.105469 91.488281 L 230.105469 91.429688 C 230.632812 91.292969 231.117188 91.078125 231.566406 90.785156 C 232.015625 90.492188 232.398438 90.140625 232.71875 89.734375 C 233.039062 89.324219 233.292969 88.867188 233.480469 88.363281 C 233.664062 87.855469 233.757812 87.308594 233.757812 86.722656 C 233.757812 85.808594 233.585938 85 233.25 84.300781 C 232.914062 83.597656 232.457031 83.015625 231.878906 82.546875 C 231.300781 82.082031 230.628906 81.722656 229.859375 81.480469 C 229.089844 81.238281 228.277344 81.113281 227.417969 81.113281 C 225.957031 81.113281 224.667969 81.46875 223.550781 82.179688 C 222.429688 82.890625 221.617188 83.867188 221.109375 85.113281 L 223.679688 86.015625 C 223.992188 85.21875 224.457031 84.597656 225.070312 84.148438 C 225.683594 83.703125 226.425781 83.476562 227.300781 83.476562 C 227.789062 83.476562 228.25 83.5625 228.691406 83.726562 C 229.128906 83.894531 229.515625 84.121094 229.859375 84.414062 C 230.199219 84.710938 230.46875 85.066406 230.664062 85.484375 C 230.855469 85.90625 230.953125 86.378906 230.953125 86.90625 C 230.953125 87.570312 230.824219 88.128906 230.558594 88.578125 C 230.296875 89.027344 229.949219 89.382812 229.523438 89.648438 C 229.09375 89.910156 228.605469 90.097656 228.046875 90.203125 C 227.492188 90.308594 226.925781 90.363281 226.339844 90.363281 L 225.433594 90.363281 L 225.433594 92.667969 L 226.308594 92.667969 C 226.914062 92.667969 227.527344 92.730469 228.152344 92.859375 C 228.773438 92.984375 229.332031 93.199219 229.828125 93.5 C 230.324219 93.800781 230.730469 94.195312 231.042969 94.683594 C 231.351562 95.167969 231.507812 95.773438 231.507812 96.492188 C 231.507812 97.152344 231.390625 97.726562 231.15625 98.214844 C 230.921875 98.699219 230.613281 99.105469 230.222656 99.4375 C 229.832031 99.769531 229.390625 100.015625 228.894531 100.183594 C 228.398438 100.347656 227.886719 100.429688 227.359375 100.429688 C 226.269531 100.429688 225.347656 100.148438 224.601562 99.582031 C 223.851562 99.019531 223.320312 98.289062 223.007812 97.398438 L 220.378906 98.269531 C 220.945312 99.828125 221.851562 100.976562 223.097656 101.714844 C 224.339844 102.453125 225.78125 102.824219 227.417969 102.824219 C 228.292969 102.824219 229.152344 102.6875 229.988281 102.414062 C 230.828125 102.140625 231.5625 101.742188 232.199219 101.21875 C 232.835938 100.695312 233.347656 100.039062 233.734375 99.253906 C 234.117188 98.464844 234.3125 97.558594 234.3125 96.527344 Z M 234.3125 96.527344 " fill-opacity="1" fill-rule="nonzero"/></g><path fill="#f26b6d" d="M 265.9375 309.589844 C 265.820312 309.574219 265.707031 309.554688 265.585938 309.554688 L 207.152344 309.554688 L 199.691406 287.519531 L 185.757812 246.390625 C 185.078125 244.382812 183.191406 243.03125 181.070312 243.03125 L 78.824219 243.03125 C 76.957031 243.03125 75.640625 244.863281 76.238281 246.632812 L 98.242188 311.585938 C 98.921875 313.597656 100.808594 314.949219 102.929688 314.949219 L 265.585938 314.949219 C 267.074219 314.949219 268.285156 313.738281 268.285156 312.25 C 268.285156 310.882812 267.261719 309.765625 265.9375 309.589844 Z M 139.511719 286.398438 C 135.414062 286.398438 132.089844 283.082031 132.089844 278.988281 C 132.089844 274.898438 135.414062 271.582031 139.511719 271.582031 C 143.609375 271.582031 146.929688 274.898438 146.929688 278.988281 C 146.929688 283.082031 143.609375 286.398438 139.511719 286.398438 Z M 334.25 56.703125 L 289.972656 56.703125 L 289.972656 125.703125 L 359.054688 125.703125 L 359.054688 81.472656 C 356.023438 67.984375 347.757812 59.726562 334.25 56.703125 Z M 331.972656 97.65625 L 328.996094 97.65625 L 328.996094 102.296875 L 326.25 102.296875 L 326.25 97.65625 L 316.726562 97.65625 L 316.726562 95.089844 L 325.519531 81.640625 L 328.996094 81.640625 L 328.996094 95.234375 L 331.972656 95.234375 Z M 326.191406 84.878906 L 326.25 84.878906 L 326.25 95.234375 L 319.648438 95.234375 Z M 326.191406 84.878906 " fill-opacity="1" fill-rule="nonzero"/><path fill="#4724e3" d="M 96.746094 92.097656 L 69.214844 92.097656 L 69.214844 90.308594 L 96.746094 90.308594 Z M 262.441406 92.097656 L 289.972656 92.097656 L 289.972656 90.308594 L 262.441406 90.308594 Z M 193.359375 90.308594 L 165.828125 90.308594 L 165.828125 92.097656 L 193.359375 92.097656 Z M 210.789062 184.394531 L 214.449219 192.855469 C 228.234375 177.117188 232.285156 157.15625 225.0625 151.054688 C 215.804688 143.238281 186.804688 136.644531 181.738281 143.730469 C 176.453125 151.117188 182.59375 156.136719 182.59375 156.136719 L 182.59375 156.144531 C 182.753906 155.535156 182.921875 154.917969 183.125 154.289062 C 183.449219 153.273438 183.9375 152.253906 184.507812 151.269531 C 184.507812 151.261719 184.503906 151.257812 184.503906 151.253906 C 184.542969 151.183594 184.59375 151.121094 184.632812 151.054688 C 184.589844 151.125 184.550781 151.199219 184.507812 151.269531 C 184.507812 151.269531 194.292969 160.351562 200.730469 159.890625 L 202.648438 171.652344 C 204.476562 170.351562 207.46875 168.910156 211.304688 169.5625 C 217.835938 170.667969 218.183594 177.253906 215.386719 180.808594 C 213.976562 182.601562 212.375 183.707031 210.789062 184.394531 Z M 98.378906 196.960938 L 82.683594 203.773438 C 82.683594 203.773438 86.375 223.503906 92.871094 243.03125 L 125.550781 243.03125 L 98.609375 196.863281 Z M 213.796875 204.0625 L 188.003906 204.0625 C 188.003906 204.0625 165.96875 204.0625 151.976562 215.8125 C 144.070312 222.457031 137.460938 230.675781 125.550781 243.03125 L 181.070312 243.03125 C 183.191406 243.03125 185.078125 244.382812 185.757812 246.390625 L 199.691406 287.519531 L 207.152344 309.554688 L 265.585938 309.554688 C 265.707031 309.554688 265.820312 309.574219 265.9375 309.589844 C 266.789062 309.578125 267.585938 309.566406 268.285156 309.554688 C 272.097656 309.484375 278.648438 304.785156 278.648438 296.199219 C 278.652344 282.738281 259.136719 235.699219 245.769531 218.902344 C 232.839844 202.652344 213.796875 204.0625 213.796875 204.0625 Z M 28.644531 86.394531 L 30.308594 88.351562 L 34.222656 85.082031 L 34.222656 102.296875 L 37.027344 102.296875 L 37.027344 81.640625 L 34.511719 81.640625 Z M 137.84375 99.757812 L 127.710938 99.757812 L 134.425781 93.222656 C 134.875 92.773438 135.304688 92.324219 135.710938 91.867188 C 136.121094 91.410156 136.476562 90.929688 136.777344 90.421875 C 137.082031 89.914062 137.320312 89.382812 137.492188 88.816406 C 137.671875 88.253906 137.757812 87.640625 137.757812 86.980469 C 137.757812 86.027344 137.578125 85.179688 137.21875 84.441406 C 136.855469 83.703125 136.375 83.089844 135.773438 82.601562 C 135.167969 82.117188 134.472656 81.746094 133.683594 81.496094 C 132.894531 81.242188 132.070312 81.113281 131.214844 81.113281 C 130.339844 81.113281 129.515625 81.253906 128.746094 81.523438 C 127.976562 81.796875 127.300781 82.179688 126.714844 82.675781 C 126.132812 83.171875 125.648438 83.753906 125.269531 84.425781 C 124.890625 85.097656 124.640625 85.824219 124.527344 86.597656 L 127.300781 87.066406 C 127.476562 86.015625 127.90625 85.15625 128.585938 84.484375 C 129.269531 83.8125 130.132812 83.476562 131.1875 83.476562 C 131.691406 83.476562 132.167969 83.558594 132.617188 83.726562 C 133.0625 83.890625 133.453125 84.128906 133.785156 84.4375 C 134.117188 84.75 134.378906 85.125 134.574219 85.5625 C 134.769531 86 134.867188 86.492188 134.867188 87.039062 C 134.867188 87.910156 134.640625 88.699219 134.195312 89.398438 C 133.746094 90.101562 133.210938 90.773438 132.585938 91.414062 L 124.351562 99.582031 L 124.351562 102.296875 L 137.84375 102.296875 Z M 230.222656 99.4375 C 229.832031 99.765625 229.390625 100.015625 228.894531 100.179688 C 228.398438 100.34375 227.886719 100.429688 227.359375 100.429688 C 226.269531 100.429688 225.347656 100.144531 224.597656 99.582031 C 223.847656 99.019531 223.320312 98.289062 223.007812 97.394531 L 220.378906 98.269531 C 220.945312 99.824219 221.851562 100.972656 223.097656 101.710938 C 224.339844 102.453125 225.78125 102.820312 227.417969 102.820312 C 228.292969 102.820312 229.152344 102.683594 229.988281 102.414062 C 230.824219 102.140625 231.5625 101.742188 232.199219 101.21875 C 232.835938 100.695312 233.347656 100.039062 233.734375 99.253906 C 234.117188 98.464844 234.3125 97.558594 234.3125 96.527344 C 234.3125 95.867188 234.203125 95.257812 233.992188 94.691406 C 233.777344 94.128906 233.484375 93.628906 233.113281 93.191406 C 232.746094 92.753906 232.300781 92.390625 231.785156 92.101562 C 231.269531 91.808594 230.710938 91.605469 230.105469 91.488281 L 230.105469 91.429688 C 230.632812 91.292969 231.117188 91.078125 231.566406 90.785156 C 232.015625 90.492188 232.398438 90.140625 232.71875 89.734375 C 233.039062 89.324219 233.292969 88.867188 233.480469 88.363281 C 233.664062 87.855469 233.757812 87.308594 233.757812 86.722656 C 233.757812 85.808594 233.589844 85 233.25 84.300781 C 232.914062 83.597656 232.457031 83.015625 231.878906 82.546875 C 231.300781 82.082031 230.628906 81.722656 229.859375 81.480469 C 229.089844 81.238281 228.277344 81.113281 227.421875 81.113281 C 225.960938 81.113281 224.667969 81.46875 223.550781 82.179688 C 222.429688 82.890625 221.617188 83.867188 221.109375 85.113281 L 223.679688 86.015625 C 223.992188 85.21875 224.457031 84.597656 225.070312 84.148438 C 225.683594 83.703125 226.425781 83.476562 227.304688 83.476562 C 227.789062 83.476562 228.253906 83.5625 228.691406 83.726562 C 229.128906 83.894531 229.519531 84.121094 229.859375 84.414062 C 230.199219 84.710938 230.46875 85.066406 230.664062 85.484375 C 230.855469 85.90625 230.953125 86.378906 230.953125 86.90625 C 230.953125 87.570312 230.824219 88.128906 230.558594 88.578125 C 230.296875 89.027344 229.953125 89.382812 229.523438 89.648438 C 229.09375 89.910156 228.605469 90.097656 228.046875 90.203125 C 227.492188 90.308594 226.925781 90.363281 226.339844 90.363281 L 225.433594 90.363281 L 225.433594 92.667969 L 226.308594 92.667969 C 226.914062 92.667969 227.527344 92.730469 228.152344 92.859375 C 228.773438 92.984375 229.332031 93.199219 229.828125 93.5 C 230.324219 93.800781 230.730469 94.195312 231.042969 94.683594 C 231.351562 95.167969 231.507812 95.773438 231.507812 96.492188 C 231.507812 97.152344 231.390625 97.726562 231.160156 98.214844 C 230.921875 98.695312 230.613281 99.105469 230.222656 99.4375 Z M 331.972656 95.234375 L 331.972656 97.65625 L 328.996094 97.65625 L 328.996094 102.296875 L 326.25 102.296875 L 326.25 97.65625 L 316.726562 97.65625 L 316.726562 95.089844 L 325.519531 81.640625 L 328.996094 81.640625 L 328.996094 95.234375 Z M 326.25 84.878906 L 326.191406 84.878906 L 319.648438 95.234375 L 326.25 95.234375 Z M 326.25 84.878906 " fill-opacity="1" fill-rule="nonzero"/></svg>